<?xml version="1.0" encoding="UTF-8" standalone="no"?>
<!DOCTYPE svg PUBLIC "-//W3C//DTD SVG 1.1//EN" "http://www.w3.org/Graphics/SVG/1.1/DTD/svg11.dtd">
<svg width="100%" height="100%" viewBox="0 0 1394 170" version="1.1" xmlns="http://www.w3.org/2000/svg" xmlns:xlink="http://www.w3.org/1999/xlink" xml:space="preserve" xmlns:serif="http://www.serif.com/" style="fill-rule:evenodd;clip-rule:evenodd;stroke-linejoin:round;stroke-miterlimit:2;">
    <g transform="matrix(2,0,0,2,-455.059,-3071.25)">
        <g transform="matrix(8,0,0,8,228.469,1599)">
            <path d="M0.491,-0.009C0.476,-0.003 0.462,0.001 0.451,0.005C0.439,0.008 0.426,0.01 0.412,0.01C0.386,0.01 0.366,0.004 0.351,-0.008C0.336,-0.02 0.326,-0.037 0.322,-0.06L0.319,-0.06C0.298,-0.037 0.275,-0.019 0.251,-0.006C0.226,0.006 0.197,0.012 0.163,0.012C0.127,0.012 0.097,0.001 0.074,-0.021C0.051,-0.043 0.039,-0.072 0.039,-0.108C0.039,-0.126 0.042,-0.143 0.047,-0.158C0.052,-0.172 0.06,-0.186 0.07,-0.197C0.078,-0.207 0.089,-0.216 0.103,-0.223C0.116,-0.231 0.128,-0.237 0.14,-0.242C0.155,-0.247 0.184,-0.257 0.229,-0.272C0.274,-0.287 0.304,-0.299 0.32,-0.308L0.32,-0.356C0.32,-0.36 0.319,-0.368 0.317,-0.38C0.315,-0.392 0.312,-0.404 0.306,-0.415C0.299,-0.427 0.29,-0.437 0.278,-0.446C0.266,-0.455 0.249,-0.459 0.228,-0.459C0.213,-0.459 0.199,-0.457 0.186,-0.452C0.173,-0.447 0.164,-0.442 0.159,-0.436C0.159,-0.43 0.16,-0.42 0.163,-0.407C0.166,-0.395 0.168,-0.383 0.168,-0.372C0.168,-0.361 0.163,-0.35 0.153,-0.341C0.142,-0.331 0.128,-0.327 0.11,-0.327C0.094,-0.327 0.082,-0.332 0.074,-0.344C0.066,-0.356 0.063,-0.368 0.063,-0.383C0.063,-0.398 0.068,-0.412 0.078,-0.426C0.089,-0.439 0.103,-0.452 0.12,-0.462C0.134,-0.472 0.152,-0.479 0.173,-0.486C0.194,-0.492 0.214,-0.495 0.234,-0.495C0.261,-0.495 0.285,-0.493 0.305,-0.49C0.326,-0.486 0.344,-0.478 0.361,-0.465C0.377,-0.453 0.39,-0.437 0.399,-0.416C0.407,-0.396 0.412,-0.369 0.412,-0.336C0.412,-0.29 0.411,-0.249 0.41,-0.213C0.409,-0.177 0.409,-0.137 0.409,-0.095C0.409,-0.082 0.411,-0.072 0.415,-0.064C0.42,-0.057 0.426,-0.051 0.436,-0.045C0.44,-0.042 0.448,-0.041 0.459,-0.041C0.469,-0.04 0.48,-0.04 0.491,-0.04L0.491,-0.009ZM0.321,-0.267C0.293,-0.258 0.269,-0.25 0.248,-0.243C0.227,-0.235 0.208,-0.225 0.19,-0.213C0.174,-0.202 0.161,-0.189 0.151,-0.174C0.142,-0.159 0.137,-0.141 0.137,-0.12C0.137,-0.093 0.144,-0.073 0.158,-0.061C0.173,-0.048 0.191,-0.042 0.212,-0.042C0.236,-0.042 0.256,-0.047 0.273,-0.058C0.291,-0.07 0.306,-0.083 0.318,-0.098L0.321,-0.267Z" style="fill-rule:nonzero;"/>
        </g>
    </g>
    <g transform="matrix(2,0,0,2,-455.059,-3071.25)">
        <g transform="matrix(12.6992,0,0,12.6992,226.891,1612)">
            <path d="M0.525,-0.225C0.525,-0.191 0.519,-0.16 0.507,-0.13C0.494,-0.1 0.478,-0.075 0.458,-0.054C0.434,-0.03 0.407,-0.013 0.379,-0.001C0.35,0.01 0.32,0.016 0.289,0.016C0.252,0.016 0.22,0.009 0.19,-0.004C0.161,-0.018 0.136,-0.037 0.116,-0.061C0.095,-0.086 0.079,-0.116 0.067,-0.152C0.056,-0.188 0.05,-0.228 0.05,-0.272C0.05,-0.389 0.085,-0.487 0.154,-0.566C0.223,-0.646 0.316,-0.694 0.432,-0.71L0.441,-0.666L0.397,-0.658C0.326,-0.635 0.272,-0.6 0.233,-0.552C0.195,-0.504 0.17,-0.445 0.158,-0.376C0.186,-0.401 0.214,-0.418 0.241,-0.428C0.269,-0.438 0.297,-0.443 0.328,-0.443C0.382,-0.443 0.428,-0.423 0.467,-0.381C0.506,-0.339 0.525,-0.287 0.525,-0.225ZM0.419,-0.212C0.419,-0.265 0.407,-0.307 0.383,-0.339C0.358,-0.371 0.326,-0.387 0.285,-0.387C0.261,-0.387 0.238,-0.382 0.217,-0.373C0.196,-0.364 0.176,-0.349 0.156,-0.327C0.156,-0.323 0.155,-0.314 0.155,-0.3C0.154,-0.286 0.154,-0.275 0.154,-0.267C0.154,-0.19 0.166,-0.131 0.191,-0.088C0.216,-0.045 0.249,-0.023 0.29,-0.023C0.328,-0.023 0.36,-0.04 0.383,-0.073C0.407,-0.107 0.419,-0.153 0.419,-0.212Z" style="fill-rule:nonzero;"/>
        </g>
    </g>
    <g transform="matrix(2,0,0,2,-455.059,-3071.25)">
        <g transform="matrix(9.1888,0,0,9.1888,248.169,1599)">
            <path d="M0.491,-0.009C0.476,-0.003 0.462,0.001 0.451,0.005C0.439,0.008 0.426,0.01 0.412,0.01C0.386,0.01 0.366,0.004 0.351,-0.008C0.336,-0.02 0.326,-0.037 0.322,-0.06L0.319,-0.06C0.298,-0.037 0.275,-0.019 0.251,-0.006C0.226,0.006 0.197,0.012 0.163,0.012C0.127,0.012 0.097,0.001 0.074,-0.021C0.051,-0.043 0.039,-0.072 0.039,-0.108C0.039,-0.126 0.042,-0.143 0.047,-0.158C0.052,-0.172 0.06,-0.186 0.07,-0.197C0.078,-0.207 0.089,-0.216 0.103,-0.223C0.116,-0.231 0.128,-0.237 0.14,-0.242C0.155,-0.247 0.184,-0.257 0.229,-0.272C0.274,-0.287 0.304,-0.299 0.32,-0.308L0.32,-0.356C0.32,-0.36 0.319,-0.368 0.317,-0.38C0.315,-0.392 0.312,-0.404 0.306,-0.415C0.299,-0.427 0.29,-0.437 0.278,-0.446C0.266,-0.455 0.249,-0.459 0.228,-0.459C0.213,-0.459 0.199,-0.457 0.186,-0.452C0.173,-0.447 0.164,-0.442 0.159,-0.436C0.159,-0.43 0.16,-0.42 0.163,-0.407C0.166,-0.395 0.168,-0.383 0.168,-0.372C0.168,-0.361 0.163,-0.35 0.153,-0.341C0.142,-0.331 0.128,-0.327 0.11,-0.327C0.094,-0.327 0.082,-0.332 0.074,-0.344C0.066,-0.356 0.063,-0.368 0.063,-0.383C0.063,-0.398 0.068,-0.412 0.078,-0.426C0.089,-0.439 0.103,-0.452 0.12,-0.462C0.134,-0.472 0.152,-0.479 0.173,-0.486C0.194,-0.492 0.214,-0.495 0.234,-0.495C0.261,-0.495 0.285,-0.493 0.305,-0.49C0.326,-0.486 0.344,-0.478 0.361,-0.465C0.377,-0.453 0.39,-0.437 0.399,-0.416C0.407,-0.396 0.412,-0.369 0.412,-0.336C0.412,-0.29 0.411,-0.249 0.41,-0.213C0.409,-0.177 0.409,-0.137 0.409,-0.095C0.409,-0.082 0.411,-0.072 0.415,-0.064C0.42,-0.057 0.426,-0.051 0.436,-0.045C0.44,-0.042 0.448,-0.041 0.459,-0.041C0.469,-0.04 0.48,-0.04 0.491,-0.04L0.491,-0.009ZM0.321,-0.267C0.293,-0.258 0.269,-0.25 0.248,-0.243C0.227,-0.235 0.208,-0.225 0.19,-0.213C0.174,-0.202 0.161,-0.189 0.151,-0.174C0.142,-0.159 0.137,-0.141 0.137,-0.12C0.137,-0.093 0.144,-0.073 0.158,-0.061C0.173,-0.048 0.191,-0.042 0.212,-0.042C0.236,-0.042 0.256,-0.047 0.273,-0.058C0.291,-0.07 0.306,-0.083 0.318,-0.098L0.321,-0.267Z" style="fill-rule:nonzero;"/>
        </g>
    </g>
    <g transform="matrix(2,0,0,2,-455.059,-3071.25)">
        <g transform="matrix(12.6992,0,0,12.6992,247.294,1612.5)">
            <path d="M0.502,-0.492L0.154,0.178L0.093,0.178L0.421,-0.442L0.229,-0.442C0.201,-0.442 0.179,-0.442 0.163,-0.441C0.147,-0.44 0.132,-0.437 0.119,-0.432C0.109,-0.427 0.1,-0.417 0.092,-0.399C0.084,-0.382 0.077,-0.36 0.073,-0.333L0.043,-0.333L0.043,-0.524L0.502,-0.524L0.502,-0.492Z" style="fill-rule:nonzero;"/>
        </g>
    </g>
    <g transform="matrix(2,0,0,2,-455.059,-3071.25)">
        <g transform="matrix(10.5568,0,0,10.5568,267.825,1599)">
            <path d="M0.491,-0.009C0.476,-0.003 0.462,0.001 0.451,0.005C0.439,0.008 0.426,0.01 0.412,0.01C0.386,0.01 0.366,0.004 0.351,-0.008C0.336,-0.02 0.326,-0.037 0.322,-0.06L0.319,-0.06C0.298,-0.037 0.275,-0.019 0.251,-0.006C0.226,0.006 0.197,0.012 0.163,0.012C0.127,0.012 0.097,0.001 0.074,-0.021C0.051,-0.043 0.039,-0.072 0.039,-0.108C0.039,-0.126 0.042,-0.143 0.047,-0.158C0.052,-0.172 0.06,-0.186 0.07,-0.197C0.078,-0.207 0.089,-0.216 0.103,-0.223C0.116,-0.231 0.128,-0.237 0.14,-0.242C0.155,-0.247 0.184,-0.257 0.229,-0.272C0.274,-0.287 0.304,-0.299 0.32,-0.308L0.32,-0.356C0.32,-0.36 0.319,-0.368 0.317,-0.38C0.315,-0.392 0.312,-0.404 0.306,-0.415C0.299,-0.427 0.29,-0.437 0.278,-0.446C0.266,-0.455 0.249,-0.459 0.228,-0.459C0.213,-0.459 0.199,-0.457 0.186,-0.452C0.173,-0.447 0.164,-0.442 0.159,-0.436C0.159,-0.43 0.16,-0.42 0.163,-0.407C0.166,-0.395 0.168,-0.383 0.168,-0.372C0.168,-0.361 0.163,-0.35 0.153,-0.341C0.142,-0.331 0.128,-0.327 0.11,-0.327C0.094,-0.327 0.082,-0.332 0.074,-0.344C0.066,-0.356 0.063,-0.368 0.063,-0.383C0.063,-0.398 0.068,-0.412 0.078,-0.426C0.089,-0.439 0.103,-0.452 0.12,-0.462C0.134,-0.472 0.152,-0.479 0.173,-0.486C0.194,-0.492 0.214,-0.495 0.234,-0.495C0.261,-0.495 0.285,-0.493 0.305,-0.49C0.326,-0.486 0.344,-0.478 0.361,-0.465C0.377,-0.453 0.39,-0.437 0.399,-0.416C0.407,-0.396 0.412,-0.369 0.412,-0.336C0.412,-0.29 0.411,-0.249 0.41,-0.213C0.409,-0.177 0.409,-0.137 0.409,-0.095C0.409,-0.082 0.411,-0.072 0.415,-0.064C0.42,-0.057 0.426,-0.051 0.436,-0.045C0.44,-0.042 0.448,-0.041 0.459,-0.041C0.469,-0.04 0.48,-0.04 0.491,-0.04L0.491,-0.009ZM0.321,-0.267C0.293,-0.258 0.269,-0.25 0.248,-0.243C0.227,-0.235 0.208,-0.225 0.19,-0.213C0.174,-0.202 0.161,-0.189 0.151,-0.174C0.142,-0.159 0.137,-0.141 0.137,-0.12C0.137,-0.093 0.144,-0.073 0.158,-0.061C0.173,-0.048 0.191,-0.042 0.212,-0.042C0.236,-0.042 0.256,-0.047 0.273,-0.058C0.291,-0.07 0.306,-0.083 0.318,-0.098L0.321,-0.267Z" style="fill-rule:nonzero;"/>
        </g>
    </g>
    <g transform="matrix(2,0,0,2,-455.059,-3071.25)">
        <g transform="matrix(12.6992,0,0,12.6992,266.699,1611.5)">
            <path d="M0.545,-0.184C0.545,-0.129 0.522,-0.082 0.475,-0.042C0.427,-0.003 0.365,0.017 0.289,0.017C0.217,0.017 0.159,-0.001 0.116,-0.038C0.072,-0.074 0.051,-0.12 0.051,-0.177C0.051,-0.219 0.064,-0.254 0.089,-0.282C0.115,-0.311 0.153,-0.334 0.203,-0.354C0.161,-0.377 0.13,-0.403 0.11,-0.43C0.089,-0.458 0.079,-0.489 0.079,-0.524C0.079,-0.577 0.102,-0.621 0.147,-0.657C0.192,-0.693 0.246,-0.711 0.309,-0.711C0.371,-0.711 0.422,-0.694 0.461,-0.66C0.5,-0.626 0.52,-0.584 0.52,-0.533C0.52,-0.5 0.509,-0.469 0.487,-0.439C0.466,-0.41 0.434,-0.386 0.393,-0.367C0.447,-0.344 0.486,-0.318 0.51,-0.29C0.533,-0.262 0.545,-0.227 0.545,-0.184ZM0.427,-0.538C0.427,-0.578 0.415,-0.61 0.392,-0.635C0.368,-0.66 0.338,-0.672 0.301,-0.672C0.264,-0.672 0.234,-0.66 0.211,-0.636C0.188,-0.613 0.176,-0.583 0.176,-0.547C0.176,-0.513 0.189,-0.484 0.216,-0.46C0.243,-0.437 0.29,-0.411 0.358,-0.384C0.383,-0.4 0.4,-0.421 0.411,-0.446C0.422,-0.472 0.427,-0.503 0.427,-0.538ZM0.448,-0.161C0.448,-0.181 0.443,-0.199 0.435,-0.215C0.426,-0.23 0.413,-0.244 0.396,-0.257C0.381,-0.269 0.358,-0.282 0.33,-0.296C0.301,-0.309 0.271,-0.323 0.237,-0.337C0.206,-0.32 0.183,-0.298 0.168,-0.272C0.154,-0.246 0.146,-0.216 0.146,-0.183C0.146,-0.135 0.161,-0.096 0.189,-0.067C0.217,-0.037 0.254,-0.022 0.301,-0.022C0.346,-0.022 0.382,-0.035 0.408,-0.062C0.435,-0.088 0.448,-0.121 0.448,-0.161Z" style="fill-rule:nonzero;"/>
        </g>
    </g>
    <g transform="matrix(2,0,0,2,-455.059,-3071.25)">
        <g transform="matrix(12.1264,0,0,12.1264,287.429,1599)">
            <path d="M0.491,-0.009C0.476,-0.003 0.462,0.001 0.451,0.005C0.439,0.008 0.426,0.01 0.412,0.01C0.386,0.01 0.366,0.004 0.351,-0.008C0.336,-0.02 0.326,-0.037 0.322,-0.06L0.319,-0.06C0.298,-0.037 0.275,-0.019 0.251,-0.006C0.226,0.006 0.197,0.012 0.163,0.012C0.127,0.012 0.097,0.001 0.074,-0.021C0.051,-0.043 0.039,-0.072 0.039,-0.108C0.039,-0.126 0.042,-0.143 0.047,-0.158C0.052,-0.172 0.06,-0.186 0.07,-0.197C0.078,-0.207 0.089,-0.216 0.103,-0.223C0.116,-0.231 0.128,-0.237 0.14,-0.242C0.155,-0.247 0.184,-0.257 0.229,-0.272C0.274,-0.287 0.304,-0.299 0.32,-0.308L0.32,-0.356C0.32,-0.36 0.319,-0.368 0.317,-0.38C0.315,-0.392 0.312,-0.404 0.306,-0.415C0.299,-0.427 0.29,-0.437 0.278,-0.446C0.266,-0.455 0.249,-0.459 0.228,-0.459C0.213,-0.459 0.199,-0.457 0.186,-0.452C0.173,-0.447 0.164,-0.442 0.159,-0.436C0.159,-0.43 0.16,-0.42 0.163,-0.407C0.166,-0.395 0.168,-0.383 0.168,-0.372C0.168,-0.361 0.163,-0.35 0.153,-0.341C0.142,-0.331 0.128,-0.327 0.11,-0.327C0.094,-0.327 0.082,-0.332 0.074,-0.344C0.066,-0.356 0.063,-0.368 0.063,-0.383C0.063,-0.398 0.068,-0.412 0.078,-0.426C0.089,-0.439 0.103,-0.452 0.12,-0.462C0.134,-0.472 0.152,-0.479 0.173,-0.486C0.194,-0.492 0.214,-0.495 0.234,-0.495C0.261,-0.495 0.285,-0.493 0.305,-0.49C0.326,-0.486 0.344,-0.478 0.361,-0.465C0.377,-0.453 0.39,-0.437 0.399,-0.416C0.407,-0.396 0.412,-0.369 0.412,-0.336C0.412,-0.29 0.411,-0.249 0.41,-0.213C0.409,-0.177 0.409,-0.137 0.409,-0.095C0.409,-0.082 0.411,-0.072 0.415,-0.064C0.42,-0.057 0.426,-0.051 0.436,-0.045C0.44,-0.042 0.448,-0.041 0.459,-0.041C0.469,-0.04 0.48,-0.04 0.491,-0.04L0.491,-0.009ZM0.321,-0.267C0.293,-0.258 0.269,-0.25 0.248,-0.243C0.227,-0.235 0.208,-0.225 0.19,-0.213C0.174,-0.202 0.161,-0.189 0.151,-0.174C0.142,-0.159 0.137,-0.141 0.137,-0.12C0.137,-0.093 0.144,-0.073 0.158,-0.061C0.173,-0.048 0.191,-0.042 0.212,-0.042C0.236,-0.042 0.256,-0.047 0.273,-0.058C0.291,-0.07 0.306,-0.083 0.318,-0.098L0.321,-0.267Z" style="fill-rule:nonzero;"/>
        </g>
    </g>
    <g transform="matrix(2,0,0,2,-455.059,-3071.25)">
        <g transform="matrix(12.6992,0,0,12.6992,286.891,1612.5)">
            <path d="M0.516,-0.252C0.516,-0.195 0.507,-0.142 0.489,-0.092C0.471,-0.042 0.445,0.002 0.412,0.04C0.379,0.077 0.339,0.108 0.291,0.132C0.244,0.157 0.191,0.173 0.132,0.181L0.124,0.137L0.167,0.129C0.237,0.107 0.292,0.073 0.332,0.027C0.371,-0.019 0.396,-0.077 0.408,-0.148C0.381,-0.125 0.354,-0.108 0.328,-0.098C0.301,-0.087 0.271,-0.082 0.238,-0.082C0.185,-0.082 0.139,-0.103 0.1,-0.144C0.061,-0.185 0.041,-0.237 0.041,-0.3C0.041,-0.368 0.064,-0.424 0.109,-0.471C0.155,-0.517 0.211,-0.54 0.277,-0.54C0.35,-0.54 0.408,-0.514 0.451,-0.462C0.494,-0.411 0.516,-0.34 0.516,-0.252ZM0.412,-0.258C0.412,-0.334 0.4,-0.394 0.375,-0.437C0.35,-0.48 0.317,-0.501 0.276,-0.501C0.238,-0.501 0.206,-0.485 0.183,-0.451C0.159,-0.418 0.147,-0.372 0.147,-0.313C0.147,-0.261 0.159,-0.218 0.183,-0.187C0.208,-0.155 0.24,-0.139 0.281,-0.139C0.306,-0.139 0.329,-0.143 0.351,-0.153C0.372,-0.162 0.391,-0.177 0.41,-0.197C0.41,-0.199 0.41,-0.201 0.41,-0.205C0.411,-0.209 0.411,-0.215 0.411,-0.222C0.411,-0.226 0.412,-0.251 0.412,-0.258Z" style="fill-rule:nonzero;"/>
        </g>
    </g>
    <g transform="matrix(2,0,0,2,-455.059,-3071.25)">
        <g transform="matrix(13.9296,0,0,13.9296,306.975,1599)">
            <path d="M0.491,-0.009C0.476,-0.003 0.462,0.001 0.451,0.005C0.439,0.008 0.426,0.01 0.412,0.01C0.386,0.01 0.366,0.004 0.351,-0.008C0.336,-0.02 0.326,-0.037 0.322,-0.06L0.319,-0.06C0.298,-0.037 0.275,-0.019 0.251,-0.006C0.226,0.006 0.197,0.012 0.163,0.012C0.127,0.012 0.097,0.001 0.074,-0.021C0.051,-0.043 0.039,-0.072 0.039,-0.108C0.039,-0.126 0.042,-0.143 0.047,-0.158C0.052,-0.172 0.06,-0.186 0.07,-0.197C0.078,-0.207 0.089,-0.216 0.103,-0.223C0.116,-0.231 0.128,-0.237 0.14,-0.242C0.155,-0.247 0.184,-0.257 0.229,-0.272C0.274,-0.287 0.304,-0.299 0.32,-0.308L0.32,-0.356C0.32,-0.36 0.319,-0.368 0.317,-0.38C0.315,-0.392 0.312,-0.404 0.306,-0.415C0.299,-0.427 0.29,-0.437 0.278,-0.446C0.266,-0.455 0.249,-0.459 0.228,-0.459C0.213,-0.459 0.199,-0.457 0.186,-0.452C0.173,-0.447 0.164,-0.442 0.159,-0.436C0.159,-0.43 0.16,-0.42 0.163,-0.407C0.166,-0.395 0.168,-0.383 0.168,-0.372C0.168,-0.361 0.163,-0.35 0.153,-0.341C0.142,-0.331 0.128,-0.327 0.11,-0.327C0.094,-0.327 0.082,-0.332 0.074,-0.344C0.066,-0.356 0.063,-0.368 0.063,-0.383C0.063,-0.398 0.068,-0.412 0.078,-0.426C0.089,-0.439 0.103,-0.452 0.12,-0.462C0.134,-0.472 0.152,-0.479 0.173,-0.486C0.194,-0.492 0.214,-0.495 0.234,-0.495C0.261,-0.495 0.285,-0.493 0.305,-0.49C0.326,-0.486 0.344,-0.478 0.361,-0.465C0.377,-0.453 0.39,-0.437 0.399,-0.416C0.407,-0.396 0.412,-0.369 0.412,-0.336C0.412,-0.29 0.411,-0.249 0.41,-0.213C0.409,-0.177 0.409,-0.137 0.409,-0.095C0.409,-0.082 0.411,-0.072 0.415,-0.064C0.42,-0.057 0.426,-0.051 0.436,-0.045C0.44,-0.042 0.448,-0.041 0.459,-0.041C0.469,-0.04 0.48,-0.04 0.491,-0.04L0.491,-0.009ZM0.321,-0.267C0.293,-0.258 0.269,-0.25 0.248,-0.243C0.227,-0.235 0.208,-0.225 0.19,-0.213C0.174,-0.202 0.161,-0.189 0.151,-0.174C0.142,-0.159 0.137,-0.141 0.137,-0.12C0.137,-0.093 0.144,-0.073 0.158,-0.061C0.173,-0.048 0.191,-0.042 0.212,-0.042C0.236,-0.042 0.256,-0.047 0.273,-0.058C0.291,-0.07 0.306,-0.083 0.318,-0.098L0.321,-0.267Z" style="fill-rule:nonzero;"/>
        </g>
    </g>
    <g transform="matrix(2,0,0,2,-455.059,-3071.25)">
        <g transform="matrix(12.6992,0,0,12.6992,303.859,1612.5)">
            <path d="M0.395,-0L0.066,-0L0.066,-0.035C0.076,-0.035 0.091,-0.037 0.112,-0.039C0.132,-0.041 0.146,-0.043 0.154,-0.045C0.164,-0.049 0.172,-0.054 0.177,-0.061C0.183,-0.069 0.186,-0.08 0.186,-0.094L0.186,-0.437L0.064,-0.437L0.064,-0.478L0.091,-0.478C0.126,-0.478 0.157,-0.485 0.185,-0.498C0.213,-0.511 0.233,-0.525 0.245,-0.54L0.286,-0.54C0.285,-0.518 0.284,-0.494 0.283,-0.465C0.282,-0.437 0.281,-0.412 0.281,-0.389L0.281,-0.1C0.281,-0.088 0.284,-0.078 0.289,-0.069C0.294,-0.06 0.301,-0.054 0.311,-0.049C0.319,-0.046 0.333,-0.042 0.352,-0.04C0.371,-0.037 0.386,-0.035 0.395,-0.035L0.395,-0Z" style="fill-rule:nonzero;"/>
        </g>
        <g transform="matrix(12.6992,0,0,12.6992,309.316,1612.5)">
            <path d="M0.501,-0.456C0.522,-0.431 0.538,-0.402 0.548,-0.368C0.558,-0.334 0.563,-0.299 0.563,-0.262C0.563,-0.218 0.557,-0.178 0.544,-0.143C0.532,-0.108 0.514,-0.079 0.492,-0.056C0.469,-0.032 0.442,-0.014 0.411,-0.002C0.38,0.01 0.345,0.016 0.307,0.016C0.265,0.016 0.227,0.009 0.194,-0.005C0.161,-0.019 0.135,-0.039 0.114,-0.063C0.093,-0.088 0.077,-0.118 0.066,-0.152C0.056,-0.186 0.05,-0.223 0.05,-0.262C0.05,-0.301 0.055,-0.337 0.066,-0.369C0.076,-0.402 0.092,-0.431 0.114,-0.458C0.135,-0.483 0.161,-0.503 0.194,-0.518C0.227,-0.532 0.265,-0.54 0.307,-0.54C0.352,-0.54 0.39,-0.532 0.422,-0.517C0.454,-0.502 0.48,-0.482 0.501,-0.456ZM0.456,-0.262C0.456,-0.34 0.442,-0.4 0.416,-0.442C0.389,-0.485 0.353,-0.506 0.308,-0.506C0.261,-0.506 0.225,-0.485 0.198,-0.442C0.172,-0.4 0.158,-0.34 0.158,-0.262C0.158,-0.189 0.171,-0.129 0.197,-0.085C0.222,-0.04 0.259,-0.018 0.307,-0.018C0.354,-0.018 0.391,-0.04 0.417,-0.085C0.443,-0.129 0.456,-0.189 0.456,-0.262Z" style="fill-rule:nonzero;"/>
        </g>
    </g>
    <g transform="matrix(2,0,0,2,-455.059,-3071.25)">
        <g transform="matrix(16,0,0,16,326.453,1599)">
            <path d="M0.491,-0.009C0.476,-0.003 0.462,0.001 0.451,0.005C0.439,0.008 0.426,0.01 0.412,0.01C0.386,0.01 0.366,0.004 0.351,-0.008C0.336,-0.02 0.326,-0.037 0.322,-0.06L0.319,-0.06C0.298,-0.037 0.275,-0.019 0.251,-0.006C0.226,0.006 0.197,0.012 0.163,0.012C0.127,0.012 0.097,0.001 0.074,-0.021C0.051,-0.043 0.039,-0.072 0.039,-0.108C0.039,-0.126 0.042,-0.143 0.047,-0.158C0.052,-0.172 0.06,-0.186 0.07,-0.197C0.078,-0.207 0.089,-0.216 0.103,-0.223C0.116,-0.231 0.128,-0.237 0.14,-0.242C0.155,-0.247 0.184,-0.257 0.229,-0.272C0.274,-0.287 0.304,-0.299 0.32,-0.308L0.32,-0.356C0.32,-0.36 0.319,-0.368 0.317,-0.38C0.315,-0.392 0.312,-0.404 0.306,-0.415C0.299,-0.427 0.29,-0.437 0.278,-0.446C0.266,-0.455 0.249,-0.459 0.228,-0.459C0.213,-0.459 0.199,-0.457 0.186,-0.452C0.173,-0.447 0.164,-0.442 0.159,-0.436C0.159,-0.43 0.16,-0.42 0.163,-0.407C0.166,-0.395 0.168,-0.383 0.168,-0.372C0.168,-0.361 0.163,-0.35 0.153,-0.341C0.142,-0.331 0.128,-0.327 0.11,-0.327C0.094,-0.327 0.082,-0.332 0.074,-0.344C0.066,-0.356 0.063,-0.368 0.063,-0.383C0.063,-0.398 0.068,-0.412 0.078,-0.426C0.089,-0.439 0.103,-0.452 0.12,-0.462C0.134,-0.472 0.152,-0.479 0.173,-0.486C0.194,-0.492 0.214,-0.495 0.234,-0.495C0.261,-0.495 0.285,-0.493 0.305,-0.49C0.326,-0.486 0.344,-0.478 0.361,-0.465C0.377,-0.453 0.39,-0.437 0.399,-0.416C0.407,-0.396 0.412,-0.369 0.412,-0.336C0.412,-0.29 0.411,-0.249 0.41,-0.213C0.409,-0.177 0.409,-0.137 0.409,-0.095C0.409,-0.082 0.411,-0.072 0.415,-0.064C0.42,-0.057 0.426,-0.051 0.436,-0.045C0.44,-0.042 0.448,-0.041 0.459,-0.041C0.469,-0.04 0.48,-0.04 0.491,-0.04L0.491,-0.009ZM0.321,-0.267C0.293,-0.258 0.269,-0.25 0.248,-0.243C0.227,-0.235 0.208,-0.225 0.19,-0.213C0.174,-0.202 0.161,-0.189 0.151,-0.174C0.142,-0.159 0.137,-0.141 0.137,-0.12C0.137,-0.093 0.144,-0.073 0.158,-0.061C0.173,-0.048 0.191,-0.042 0.212,-0.042C0.236,-0.042 0.256,-0.047 0.273,-0.058C0.291,-0.07 0.306,-0.083 0.318,-0.098L0.321,-0.267Z" style="fill-rule:nonzero;"/>
        </g>
    </g>
    <g transform="matrix(2,0,0,2,-455.059,-3071.25)">
        <g transform="matrix(12.6992,0,0,12.6992,324.209,1613)">
            <path d="M0.395,-0L0.066,-0L0.066,-0.035C0.076,-0.035 0.091,-0.037 0.112,-0.039C0.132,-0.041 0.146,-0.043 0.154,-0.045C0.164,-0.049 0.172,-0.054 0.177,-0.061C0.183,-0.069 0.186,-0.08 0.186,-0.094L0.186,-0.437L0.064,-0.437L0.064,-0.478L0.091,-0.478C0.126,-0.478 0.157,-0.485 0.185,-0.498C0.213,-0.511 0.233,-0.525 0.245,-0.54L0.286,-0.54C0.285,-0.518 0.284,-0.494 0.283,-0.465C0.282,-0.437 0.281,-0.412 0.281,-0.389L0.281,-0.1C0.281,-0.088 0.284,-0.078 0.289,-0.069C0.294,-0.06 0.301,-0.054 0.311,-0.049C0.319,-0.046 0.333,-0.042 0.352,-0.04C0.371,-0.037 0.386,-0.035 0.395,-0.035L0.395,-0Z" style="fill-rule:nonzero;"/>
        </g>
        <g transform="matrix(12.6992,0,0,12.6992,329.666,1613)">
            <path d="M0.511,-0L0.054,-0L0.054,-0.066C0.063,-0.076 0.075,-0.088 0.09,-0.1C0.106,-0.113 0.125,-0.126 0.146,-0.141C0.159,-0.15 0.175,-0.16 0.193,-0.17C0.211,-0.18 0.232,-0.192 0.255,-0.204C0.281,-0.218 0.3,-0.23 0.314,-0.24C0.328,-0.251 0.341,-0.264 0.352,-0.279C0.36,-0.289 0.366,-0.302 0.37,-0.317C0.375,-0.332 0.377,-0.353 0.377,-0.381C0.377,-0.422 0.366,-0.452 0.344,-0.471C0.322,-0.49 0.294,-0.5 0.26,-0.5C0.239,-0.5 0.219,-0.495 0.2,-0.487C0.181,-0.479 0.167,-0.467 0.158,-0.453C0.16,-0.442 0.163,-0.43 0.166,-0.416C0.17,-0.401 0.171,-0.387 0.171,-0.374C0.171,-0.361 0.166,-0.35 0.156,-0.341C0.146,-0.331 0.131,-0.326 0.11,-0.326C0.094,-0.326 0.082,-0.332 0.073,-0.343C0.064,-0.354 0.06,-0.369 0.06,-0.388C0.06,-0.406 0.064,-0.423 0.074,-0.441C0.084,-0.459 0.098,-0.475 0.116,-0.49C0.134,-0.505 0.156,-0.517 0.183,-0.526C0.209,-0.535 0.237,-0.54 0.268,-0.54C0.335,-0.54 0.388,-0.525 0.427,-0.495C0.466,-0.465 0.486,-0.425 0.486,-0.375C0.486,-0.352 0.482,-0.33 0.475,-0.311C0.468,-0.291 0.457,-0.274 0.441,-0.259C0.424,-0.242 0.404,-0.228 0.381,-0.216C0.358,-0.204 0.322,-0.188 0.275,-0.167C0.247,-0.154 0.22,-0.141 0.196,-0.127C0.171,-0.113 0.151,-0.099 0.136,-0.086L0.511,-0.086L0.511,-0Z" style="fill-rule:nonzero;"/>
        </g>
    </g>
    <g transform="matrix(2,0,0,2,-455.059,-3071.25)">
        <g transform="matrix(18.3792,0,0,18.3792,345.854,1599)">
            <path d="M0.491,-0.009C0.476,-0.003 0.462,0.001 0.451,0.005C0.439,0.008 0.426,0.01 0.412,0.01C0.386,0.01 0.366,0.004 0.351,-0.008C0.336,-0.02 0.326,-0.037 0.322,-0.06L0.319,-0.06C0.298,-0.037 0.275,-0.019 0.251,-0.006C0.226,0.006 0.197,0.012 0.163,0.012C0.127,0.012 0.097,0.001 0.074,-0.021C0.051,-0.043 0.039,-0.072 0.039,-0.108C0.039,-0.126 0.042,-0.143 0.047,-0.158C0.052,-0.172 0.06,-0.186 0.07,-0.197C0.078,-0.207 0.089,-0.216 0.103,-0.223C0.116,-0.231 0.128,-0.237 0.14,-0.242C0.155,-0.247 0.184,-0.257 0.229,-0.272C0.274,-0.287 0.304,-0.299 0.32,-0.308L0.32,-0.356C0.32,-0.36 0.319,-0.368 0.317,-0.38C0.315,-0.392 0.312,-0.404 0.306,-0.415C0.299,-0.427 0.29,-0.437 0.278,-0.446C0.266,-0.455 0.249,-0.459 0.228,-0.459C0.213,-0.459 0.199,-0.457 0.186,-0.452C0.173,-0.447 0.164,-0.442 0.159,-0.436C0.159,-0.43 0.16,-0.42 0.163,-0.407C0.166,-0.395 0.168,-0.383 0.168,-0.372C0.168,-0.361 0.163,-0.35 0.153,-0.341C0.142,-0.331 0.128,-0.327 0.11,-0.327C0.094,-0.327 0.082,-0.332 0.074,-0.344C0.066,-0.356 0.063,-0.368 0.063,-0.383C0.063,-0.398 0.068,-0.412 0.078,-0.426C0.089,-0.439 0.103,-0.452 0.12,-0.462C0.134,-0.472 0.152,-0.479 0.173,-0.486C0.194,-0.492 0.214,-0.495 0.234,-0.495C0.261,-0.495 0.285,-0.493 0.305,-0.49C0.326,-0.486 0.344,-0.478 0.361,-0.465C0.377,-0.453 0.39,-0.437 0.399,-0.416C0.407,-0.396 0.412,-0.369 0.412,-0.336C0.412,-0.29 0.411,-0.249 0.41,-0.213C0.409,-0.177 0.409,-0.137 0.409,-0.095C0.409,-0.082 0.411,-0.072 0.415,-0.064C0.42,-0.057 0.426,-0.051 0.436,-0.045C0.44,-0.042 0.448,-0.041 0.459,-0.041C0.469,-0.04 0.48,-0.04 0.491,-0.04L0.491,-0.009ZM0.321,-0.267C0.293,-0.258 0.269,-0.25 0.248,-0.243C0.227,-0.235 0.208,-0.225 0.19,-0.213C0.174,-0.202 0.161,-0.189 0.151,-0.174C0.142,-0.159 0.137,-0.141 0.137,-0.12C0.137,-0.093 0.144,-0.073 0.158,-0.061C0.173,-0.048 0.191,-0.042 0.212,-0.042C0.236,-0.042 0.256,-0.047 0.273,-0.058C0.291,-0.07 0.306,-0.083 0.318,-0.098L0.321,-0.267Z" style="fill-rule:nonzero;"/>
        </g>
    </g>
    <g transform="matrix(2,0,0,2,-455.059,-3071.25)">
        <g transform="matrix(12.6992,0,0,12.6992,344.169,1612)">
            <path d="M0.395,-0L0.066,-0L0.066,-0.035C0.076,-0.035 0.091,-0.037 0.112,-0.039C0.132,-0.041 0.146,-0.043 0.154,-0.045C0.164,-0.049 0.172,-0.054 0.177,-0.061C0.183,-0.069 0.186,-0.08 0.186,-0.094L0.186,-0.437L0.064,-0.437L0.064,-0.478L0.091,-0.478C0.126,-0.478 0.157,-0.485 0.185,-0.498C0.213,-0.511 0.233,-0.525 0.245,-0.54L0.286,-0.54C0.285,-0.518 0.284,-0.494 0.283,-0.465C0.282,-0.437 0.281,-0.412 0.281,-0.389L0.281,-0.1C0.281,-0.088 0.284,-0.078 0.289,-0.069C0.294,-0.06 0.301,-0.054 0.311,-0.049C0.319,-0.046 0.333,-0.042 0.352,-0.04C0.371,-0.037 0.386,-0.035 0.395,-0.035L0.395,-0Z" style="fill-rule:nonzero;"/>
        </g>
        <g transform="matrix(12.6992,0,0,12.6992,349.624,1612)">
            <path d="M0.529,-0.044L0.43,-0.044L0.43,0.178L0.336,0.178L0.336,-0.044L0.024,-0.044L0.024,-0.119L0.366,-0.537L0.43,-0.537L0.43,-0.108L0.529,-0.108L0.529,-0.044ZM0.336,-0.108L0.336,-0.428L0.073,-0.108L0.336,-0.108Z" style="fill-rule:nonzero;"/>
        </g>
        <g transform="matrix(21.112,0,0,21.112,365.164,1599)">
            <path d="M0.491,-0.009C0.476,-0.003 0.462,0.001 0.451,0.005C0.439,0.008 0.426,0.01 0.412,0.01C0.386,0.01 0.366,0.004 0.351,-0.008C0.336,-0.02 0.326,-0.037 0.322,-0.06L0.319,-0.06C0.298,-0.037 0.275,-0.019 0.251,-0.006C0.226,0.006 0.197,0.012 0.163,0.012C0.127,0.012 0.097,0.001 0.074,-0.021C0.051,-0.043 0.039,-0.072 0.039,-0.108C0.039,-0.126 0.042,-0.143 0.047,-0.158C0.052,-0.172 0.06,-0.186 0.07,-0.197C0.078,-0.207 0.089,-0.216 0.103,-0.223C0.116,-0.231 0.128,-0.237 0.14,-0.242C0.155,-0.247 0.184,-0.257 0.229,-0.272C0.274,-0.287 0.304,-0.299 0.32,-0.308L0.32,-0.356C0.32,-0.36 0.319,-0.368 0.317,-0.38C0.315,-0.392 0.312,-0.404 0.306,-0.415C0.299,-0.427 0.29,-0.437 0.278,-0.446C0.266,-0.455 0.249,-0.459 0.228,-0.459C0.213,-0.459 0.199,-0.457 0.186,-0.452C0.173,-0.447 0.164,-0.442 0.159,-0.436C0.159,-0.43 0.16,-0.42 0.163,-0.407C0.166,-0.395 0.168,-0.383 0.168,-0.372C0.168,-0.361 0.163,-0.35 0.153,-0.341C0.142,-0.331 0.128,-0.327 0.11,-0.327C0.094,-0.327 0.082,-0.332 0.074,-0.344C0.066,-0.356 0.063,-0.368 0.063,-0.383C0.063,-0.398 0.068,-0.412 0.078,-0.426C0.089,-0.439 0.103,-0.452 0.12,-0.462C0.134,-0.472 0.152,-0.479 0.173,-0.486C0.194,-0.492 0.214,-0.495 0.234,-0.495C0.261,-0.495 0.285,-0.493 0.305,-0.49C0.326,-0.486 0.344,-0.478 0.361,-0.465C0.377,-0.453 0.39,-0.437 0.399,-0.416C0.407,-0.396 0.412,-0.369 0.412,-0.336C0.412,-0.29 0.411,-0.249 0.41,-0.213C0.409,-0.177 0.409,-0.137 0.409,-0.095C0.409,-0.082 0.411,-0.072 0.415,-0.064C0.42,-0.057 0.426,-0.051 0.436,-0.045C0.44,-0.042 0.448,-0.041 0.459,-0.041C0.469,-0.04 0.48,-0.04 0.491,-0.04L0.491,-0.009ZM0.321,-0.267C0.293,-0.258 0.269,-0.25 0.248,-0.243C0.227,-0.235 0.208,-0.225 0.19,-0.213C0.174,-0.202 0.161,-0.189 0.151,-0.174C0.142,-0.159 0.137,-0.141 0.137,-0.12C0.137,-0.093 0.144,-0.073 0.158,-0.061C0.173,-0.048 0.191,-0.042 0.212,-0.042C0.236,-0.042 0.256,-0.047 0.273,-0.058C0.291,-0.07 0.306,-0.083 0.318,-0.098L0.321,-0.267Z" style="fill-rule:nonzero;"/>
        </g>
    </g>
    <g transform="matrix(2,0,0,2,-455.059,-3071.25)">
        <g transform="matrix(12.6992,0,0,12.6992,364.163,1613)">
            <path d="M0.395,-0L0.066,-0L0.066,-0.035C0.076,-0.035 0.091,-0.037 0.112,-0.039C0.132,-0.041 0.146,-0.043 0.154,-0.045C0.164,-0.049 0.172,-0.054 0.177,-0.061C0.183,-0.069 0.186,-0.08 0.186,-0.094L0.186,-0.437L0.064,-0.437L0.064,-0.478L0.091,-0.478C0.126,-0.478 0.157,-0.485 0.185,-0.498C0.213,-0.511 0.233,-0.525 0.245,-0.54L0.286,-0.54C0.285,-0.518 0.284,-0.494 0.283,-0.465C0.282,-0.437 0.281,-0.412 0.281,-0.389L0.281,-0.1C0.281,-0.088 0.284,-0.078 0.289,-0.069C0.294,-0.06 0.301,-0.054 0.311,-0.049C0.319,-0.046 0.333,-0.042 0.352,-0.04C0.371,-0.037 0.386,-0.035 0.395,-0.035L0.395,-0Z" style="fill-rule:nonzero;"/>
        </g>
        <g transform="matrix(12.6992,0,0,12.6992,369.618,1613)">
            <path d="M0.525,-0.225C0.525,-0.191 0.519,-0.16 0.507,-0.13C0.494,-0.1 0.478,-0.075 0.458,-0.054C0.434,-0.03 0.407,-0.013 0.379,-0.001C0.35,0.01 0.32,0.016 0.289,0.016C0.252,0.016 0.22,0.009 0.19,-0.004C0.161,-0.018 0.136,-0.037 0.116,-0.061C0.095,-0.086 0.079,-0.116 0.067,-0.152C0.056,-0.188 0.05,-0.228 0.05,-0.272C0.05,-0.389 0.085,-0.487 0.154,-0.566C0.223,-0.646 0.316,-0.694 0.432,-0.71L0.441,-0.666L0.397,-0.658C0.326,-0.635 0.272,-0.6 0.233,-0.552C0.195,-0.504 0.17,-0.445 0.158,-0.376C0.186,-0.401 0.214,-0.418 0.241,-0.428C0.269,-0.438 0.297,-0.443 0.328,-0.443C0.382,-0.443 0.428,-0.423 0.467,-0.381C0.506,-0.339 0.525,-0.287 0.525,-0.225ZM0.419,-0.212C0.419,-0.265 0.407,-0.307 0.383,-0.339C0.358,-0.371 0.326,-0.387 0.285,-0.387C0.261,-0.387 0.238,-0.382 0.217,-0.373C0.196,-0.364 0.176,-0.349 0.156,-0.327C0.156,-0.323 0.155,-0.314 0.155,-0.3C0.154,-0.286 0.154,-0.275 0.154,-0.267C0.154,-0.19 0.166,-0.131 0.191,-0.088C0.216,-0.045 0.249,-0.023 0.29,-0.023C0.328,-0.023 0.36,-0.04 0.383,-0.073C0.407,-0.107 0.419,-0.153 0.419,-0.212Z" style="fill-rule:nonzero;"/>
        </g>
        <g transform="matrix(24.2512,0,0,24.2512,384.369,1599)">
            <path d="M0.491,-0.009C0.476,-0.003 0.462,0.001 0.451,0.005C0.439,0.008 0.426,0.01 0.412,0.01C0.386,0.01 0.366,0.004 0.351,-0.008C0.336,-0.02 0.326,-0.037 0.322,-0.06L0.319,-0.06C0.298,-0.037 0.275,-0.019 0.251,-0.006C0.226,0.006 0.197,0.012 0.163,0.012C0.127,0.012 0.097,0.001 0.074,-0.021C0.051,-0.043 0.039,-0.072 0.039,-0.108C0.039,-0.126 0.042,-0.143 0.047,-0.158C0.052,-0.172 0.06,-0.186 0.07,-0.197C0.078,-0.207 0.089,-0.216 0.103,-0.223C0.116,-0.231 0.128,-0.237 0.14,-0.242C0.155,-0.247 0.184,-0.257 0.229,-0.272C0.274,-0.287 0.304,-0.299 0.32,-0.308L0.32,-0.356C0.32,-0.36 0.319,-0.368 0.317,-0.38C0.315,-0.392 0.312,-0.404 0.306,-0.415C0.299,-0.427 0.29,-0.437 0.278,-0.446C0.266,-0.455 0.249,-0.459 0.228,-0.459C0.213,-0.459 0.199,-0.457 0.186,-0.452C0.173,-0.447 0.164,-0.442 0.159,-0.436C0.159,-0.43 0.16,-0.42 0.163,-0.407C0.166,-0.395 0.168,-0.383 0.168,-0.372C0.168,-0.361 0.163,-0.35 0.153,-0.341C0.142,-0.331 0.128,-0.327 0.11,-0.327C0.094,-0.327 0.082,-0.332 0.074,-0.344C0.066,-0.356 0.063,-0.368 0.063,-0.383C0.063,-0.398 0.068,-0.412 0.078,-0.426C0.089,-0.439 0.103,-0.452 0.12,-0.462C0.134,-0.472 0.152,-0.479 0.173,-0.486C0.194,-0.492 0.214,-0.495 0.234,-0.495C0.261,-0.495 0.285,-0.493 0.305,-0.49C0.326,-0.486 0.344,-0.478 0.361,-0.465C0.377,-0.453 0.39,-0.437 0.399,-0.416C0.407,-0.396 0.412,-0.369 0.412,-0.336C0.412,-0.29 0.411,-0.249 0.41,-0.213C0.409,-0.177 0.409,-0.137 0.409,-0.095C0.409,-0.082 0.411,-0.072 0.415,-0.064C0.42,-0.057 0.426,-0.051 0.436,-0.045C0.44,-0.042 0.448,-0.041 0.459,-0.041C0.469,-0.04 0.48,-0.04 0.491,-0.04L0.491,-0.009ZM0.321,-0.267C0.293,-0.258 0.269,-0.25 0.248,-0.243C0.227,-0.235 0.208,-0.225 0.19,-0.213C0.174,-0.202 0.161,-0.189 0.151,-0.174C0.142,-0.159 0.137,-0.141 0.137,-0.12C0.137,-0.093 0.144,-0.073 0.158,-0.061C0.173,-0.048 0.191,-0.042 0.212,-0.042C0.236,-0.042 0.256,-0.047 0.273,-0.058C0.291,-0.07 0.306,-0.083 0.318,-0.098L0.321,-0.267Z" style="fill-rule:nonzero;"/>
        </g>
    </g>
    <g transform="matrix(2,0,0,2,-455.059,-3071.25)">
        <g transform="matrix(12.6992,0,0,12.6992,383.971,1612.5)">
            <path d="M0.395,-0L0.066,-0L0.066,-0.035C0.076,-0.035 0.091,-0.037 0.112,-0.039C0.132,-0.041 0.146,-0.043 0.154,-0.045C0.164,-0.049 0.172,-0.054 0.177,-0.061C0.183,-0.069 0.186,-0.08 0.186,-0.094L0.186,-0.437L0.064,-0.437L0.064,-0.478L0.091,-0.478C0.126,-0.478 0.157,-0.485 0.185,-0.498C0.213,-0.511 0.233,-0.525 0.245,-0.54L0.286,-0.54C0.285,-0.518 0.284,-0.494 0.283,-0.465C0.282,-0.437 0.281,-0.412 0.281,-0.389L0.281,-0.1C0.281,-0.088 0.284,-0.078 0.289,-0.069C0.294,-0.06 0.301,-0.054 0.311,-0.049C0.319,-0.046 0.333,-0.042 0.352,-0.04C0.371,-0.037 0.386,-0.035 0.395,-0.035L0.395,-0Z" style="fill-rule:nonzero;"/>
        </g>
        <g transform="matrix(12.6992,0,0,12.6992,389.424,1612.5)">
            <path d="M0.545,-0.184C0.545,-0.129 0.522,-0.082 0.475,-0.042C0.427,-0.003 0.365,0.017 0.289,0.017C0.217,0.017 0.159,-0.001 0.116,-0.038C0.072,-0.074 0.051,-0.12 0.051,-0.177C0.051,-0.219 0.064,-0.254 0.089,-0.282C0.115,-0.311 0.153,-0.334 0.203,-0.354C0.161,-0.377 0.13,-0.403 0.11,-0.43C0.089,-0.458 0.079,-0.489 0.079,-0.524C0.079,-0.577 0.102,-0.621 0.147,-0.657C0.192,-0.693 0.246,-0.711 0.309,-0.711C0.371,-0.711 0.422,-0.694 0.461,-0.66C0.5,-0.626 0.52,-0.584 0.52,-0.533C0.52,-0.5 0.509,-0.469 0.487,-0.439C0.466,-0.41 0.434,-0.386 0.393,-0.367C0.447,-0.344 0.486,-0.318 0.51,-0.29C0.533,-0.262 0.545,-0.227 0.545,-0.184ZM0.427,-0.538C0.427,-0.578 0.415,-0.61 0.392,-0.635C0.368,-0.66 0.338,-0.672 0.301,-0.672C0.264,-0.672 0.234,-0.66 0.211,-0.636C0.188,-0.613 0.176,-0.583 0.176,-0.547C0.176,-0.513 0.189,-0.484 0.216,-0.46C0.243,-0.437 0.29,-0.411 0.358,-0.384C0.383,-0.4 0.4,-0.421 0.411,-0.446C0.422,-0.472 0.427,-0.503 0.427,-0.538ZM0.448,-0.161C0.448,-0.181 0.443,-0.199 0.435,-0.215C0.426,-0.23 0.413,-0.244 0.396,-0.257C0.381,-0.269 0.358,-0.282 0.33,-0.296C0.301,-0.309 0.271,-0.323 0.237,-0.337C0.206,-0.32 0.183,-0.298 0.168,-0.272C0.154,-0.246 0.146,-0.216 0.146,-0.183C0.146,-0.135 0.161,-0.096 0.189,-0.067C0.217,-0.037 0.254,-0.022 0.301,-0.022C0.346,-0.022 0.382,-0.035 0.408,-0.062C0.435,-0.088 0.448,-0.121 0.448,-0.161Z" style="fill-rule:nonzero;"/>
        </g>
        <g transform="matrix(27.8576,0,0,27.8576,403.705,1599)">
            <path d="M0.491,-0.009C0.476,-0.003 0.462,0.001 0.451,0.005C0.439,0.008 0.426,0.01 0.412,0.01C0.386,0.01 0.366,0.004 0.351,-0.008C0.336,-0.02 0.326,-0.037 0.322,-0.06L0.319,-0.06C0.298,-0.037 0.275,-0.019 0.251,-0.006C0.226,0.006 0.197,0.012 0.163,0.012C0.127,0.012 0.097,0.001 0.074,-0.021C0.051,-0.043 0.039,-0.072 0.039,-0.108C0.039,-0.126 0.042,-0.143 0.047,-0.158C0.052,-0.172 0.06,-0.186 0.07,-0.197C0.078,-0.207 0.089,-0.216 0.103,-0.223C0.116,-0.231 0.128,-0.237 0.14,-0.242C0.155,-0.247 0.184,-0.257 0.229,-0.272C0.274,-0.287 0.304,-0.299 0.32,-0.308L0.32,-0.356C0.32,-0.36 0.319,-0.368 0.317,-0.38C0.315,-0.392 0.312,-0.404 0.306,-0.415C0.299,-0.427 0.29,-0.437 0.278,-0.446C0.266,-0.455 0.249,-0.459 0.228,-0.459C0.213,-0.459 0.199,-0.457 0.186,-0.452C0.173,-0.447 0.164,-0.442 0.159,-0.436C0.159,-0.43 0.16,-0.42 0.163,-0.407C0.166,-0.395 0.168,-0.383 0.168,-0.372C0.168,-0.361 0.163,-0.35 0.153,-0.341C0.142,-0.331 0.128,-0.327 0.11,-0.327C0.094,-0.327 0.082,-0.332 0.074,-0.344C0.066,-0.356 0.063,-0.368 0.063,-0.383C0.063,-0.398 0.068,-0.412 0.078,-0.426C0.089,-0.439 0.103,-0.452 0.12,-0.462C0.134,-0.472 0.152,-0.479 0.173,-0.486C0.194,-0.492 0.214,-0.495 0.234,-0.495C0.261,-0.495 0.285,-0.493 0.305,-0.49C0.326,-0.486 0.344,-0.478 0.361,-0.465C0.377,-0.453 0.39,-0.437 0.399,-0.416C0.407,-0.396 0.412,-0.369 0.412,-0.336C0.412,-0.29 0.411,-0.249 0.41,-0.213C0.409,-0.177 0.409,-0.137 0.409,-0.095C0.409,-0.082 0.411,-0.072 0.415,-0.064C0.42,-0.057 0.426,-0.051 0.436,-0.045C0.44,-0.042 0.448,-0.041 0.459,-0.041C0.469,-0.04 0.48,-0.04 0.491,-0.04L0.491,-0.009ZM0.321,-0.267C0.293,-0.258 0.269,-0.25 0.248,-0.243C0.227,-0.235 0.208,-0.225 0.19,-0.213C0.174,-0.202 0.161,-0.189 0.151,-0.174C0.142,-0.159 0.137,-0.141 0.137,-0.12C0.137,-0.093 0.144,-0.073 0.158,-0.061C0.173,-0.048 0.191,-0.042 0.212,-0.042C0.236,-0.042 0.256,-0.047 0.273,-0.058C0.291,-0.07 0.306,-0.083 0.318,-0.098L0.321,-0.267Z" style="fill-rule:nonzero;"/>
        </g>
    </g>
    <g transform="matrix(2,0,0,2,-455.059,-3071.25)">
        <g transform="matrix(12.6992,0,0,12.6992,404.209,1613)">
            <path d="M0.511,-0L0.054,-0L0.054,-0.066C0.063,-0.076 0.075,-0.088 0.09,-0.1C0.106,-0.113 0.125,-0.126 0.146,-0.141C0.159,-0.15 0.175,-0.16 0.193,-0.17C0.211,-0.18 0.232,-0.192 0.255,-0.204C0.281,-0.218 0.3,-0.23 0.314,-0.24C0.328,-0.251 0.341,-0.264 0.352,-0.279C0.36,-0.289 0.366,-0.302 0.37,-0.317C0.375,-0.332 0.377,-0.353 0.377,-0.381C0.377,-0.422 0.366,-0.452 0.344,-0.471C0.322,-0.49 0.294,-0.5 0.26,-0.5C0.239,-0.5 0.219,-0.495 0.2,-0.487C0.181,-0.479 0.167,-0.467 0.158,-0.453C0.16,-0.442 0.163,-0.43 0.166,-0.416C0.17,-0.401 0.171,-0.387 0.171,-0.374C0.171,-0.361 0.166,-0.35 0.156,-0.341C0.146,-0.331 0.131,-0.326 0.11,-0.326C0.094,-0.326 0.082,-0.332 0.073,-0.343C0.064,-0.354 0.06,-0.369 0.06,-0.388C0.06,-0.406 0.064,-0.423 0.074,-0.441C0.084,-0.459 0.098,-0.475 0.116,-0.49C0.134,-0.505 0.156,-0.517 0.183,-0.526C0.209,-0.535 0.237,-0.54 0.268,-0.54C0.335,-0.54 0.388,-0.525 0.427,-0.495C0.466,-0.465 0.486,-0.425 0.486,-0.375C0.486,-0.352 0.482,-0.33 0.475,-0.311C0.468,-0.291 0.457,-0.274 0.441,-0.259C0.424,-0.242 0.404,-0.228 0.381,-0.216C0.358,-0.204 0.322,-0.188 0.275,-0.167C0.247,-0.154 0.22,-0.141 0.196,-0.127C0.171,-0.113 0.151,-0.099 0.136,-0.086L0.511,-0.086L0.511,-0Z" style="fill-rule:nonzero;"/>
        </g>
        <g transform="matrix(12.6992,0,0,12.6992,411.302,1613)">
            <path d="M0.395,-0L0.066,-0L0.066,-0.035C0.076,-0.035 0.091,-0.037 0.112,-0.039C0.132,-0.041 0.146,-0.043 0.154,-0.045C0.164,-0.049 0.172,-0.054 0.177,-0.061C0.183,-0.069 0.186,-0.08 0.186,-0.094L0.186,-0.437L0.064,-0.437L0.064,-0.478L0.091,-0.478C0.126,-0.478 0.157,-0.485 0.185,-0.498C0.213,-0.511 0.233,-0.525 0.245,-0.54L0.286,-0.54C0.285,-0.518 0.284,-0.494 0.283,-0.465C0.282,-0.437 0.281,-0.412 0.281,-0.389L0.281,-0.1C0.281,-0.088 0.284,-0.078 0.289,-0.069C0.294,-0.06 0.301,-0.054 0.311,-0.049C0.319,-0.046 0.333,-0.042 0.352,-0.04C0.371,-0.037 0.386,-0.035 0.395,-0.035L0.395,-0Z" style="fill-rule:nonzero;"/>
        </g>
        <g transform="matrix(32,0,0,32,423.086,1599)">
            <path d="M0.491,-0.009C0.476,-0.003 0.462,0.001 0.451,0.005C0.439,0.008 0.426,0.01 0.412,0.01C0.386,0.01 0.366,0.004 0.351,-0.008C0.336,-0.02 0.326,-0.037 0.322,-0.06L0.319,-0.06C0.298,-0.037 0.275,-0.019 0.251,-0.006C0.226,0.006 0.197,0.012 0.163,0.012C0.127,0.012 0.097,0.001 0.074,-0.021C0.051,-0.043 0.039,-0.072 0.039,-0.108C0.039,-0.126 0.042,-0.143 0.047,-0.158C0.052,-0.172 0.06,-0.186 0.07,-0.197C0.078,-0.207 0.089,-0.216 0.103,-0.223C0.116,-0.231 0.128,-0.237 0.14,-0.242C0.155,-0.247 0.184,-0.257 0.229,-0.272C0.274,-0.287 0.304,-0.299 0.32,-0.308L0.32,-0.356C0.32,-0.36 0.319,-0.368 0.317,-0.38C0.315,-0.392 0.312,-0.404 0.306,-0.415C0.299,-0.427 0.29,-0.437 0.278,-0.446C0.266,-0.455 0.249,-0.459 0.228,-0.459C0.213,-0.459 0.199,-0.457 0.186,-0.452C0.173,-0.447 0.164,-0.442 0.159,-0.436C0.159,-0.43 0.16,-0.42 0.163,-0.407C0.166,-0.395 0.168,-0.383 0.168,-0.372C0.168,-0.361 0.163,-0.35 0.153,-0.341C0.142,-0.331 0.128,-0.327 0.11,-0.327C0.094,-0.327 0.082,-0.332 0.074,-0.344C0.066,-0.356 0.063,-0.368 0.063,-0.383C0.063,-0.398 0.068,-0.412 0.078,-0.426C0.089,-0.439 0.103,-0.452 0.12,-0.462C0.134,-0.472 0.152,-0.479 0.173,-0.486C0.194,-0.492 0.214,-0.495 0.234,-0.495C0.261,-0.495 0.285,-0.493 0.305,-0.49C0.326,-0.486 0.344,-0.478 0.361,-0.465C0.377,-0.453 0.39,-0.437 0.399,-0.416C0.407,-0.396 0.412,-0.369 0.412,-0.336C0.412,-0.29 0.411,-0.249 0.41,-0.213C0.409,-0.177 0.409,-0.137 0.409,-0.095C0.409,-0.082 0.411,-0.072 0.415,-0.064C0.42,-0.057 0.426,-0.051 0.436,-0.045C0.44,-0.042 0.448,-0.041 0.459,-0.041C0.469,-0.04 0.48,-0.04 0.491,-0.04L0.491,-0.009ZM0.321,-0.267C0.293,-0.258 0.269,-0.25 0.248,-0.243C0.227,-0.235 0.208,-0.225 0.19,-0.213C0.174,-0.202 0.161,-0.189 0.151,-0.174C0.142,-0.159 0.137,-0.141 0.137,-0.12C0.137,-0.093 0.144,-0.073 0.158,-0.061C0.173,-0.048 0.191,-0.042 0.212,-0.042C0.236,-0.042 0.256,-0.047 0.273,-0.058C0.291,-0.07 0.306,-0.083 0.318,-0.098L0.321,-0.267Z" style="fill-rule:nonzero;"/>
        </g>
    </g>
    <g transform="matrix(2,0,0,2,-455.059,-3071.25)">
        <g transform="matrix(12.6992,0,0,12.6992,424.007,1613.5)">
            <path d="M0.511,-0L0.054,-0L0.054,-0.066C0.063,-0.076 0.075,-0.088 0.09,-0.1C0.106,-0.113 0.125,-0.126 0.146,-0.141C0.159,-0.15 0.175,-0.16 0.193,-0.17C0.211,-0.18 0.232,-0.192 0.255,-0.204C0.281,-0.218 0.3,-0.23 0.314,-0.24C0.328,-0.251 0.341,-0.264 0.352,-0.279C0.36,-0.289 0.366,-0.302 0.37,-0.317C0.375,-0.332 0.377,-0.353 0.377,-0.381C0.377,-0.422 0.366,-0.452 0.344,-0.471C0.322,-0.49 0.294,-0.5 0.26,-0.5C0.239,-0.5 0.219,-0.495 0.2,-0.487C0.181,-0.479 0.167,-0.467 0.158,-0.453C0.16,-0.442 0.163,-0.43 0.166,-0.416C0.17,-0.401 0.171,-0.387 0.171,-0.374C0.171,-0.361 0.166,-0.35 0.156,-0.341C0.146,-0.331 0.131,-0.326 0.11,-0.326C0.094,-0.326 0.082,-0.332 0.073,-0.343C0.064,-0.354 0.06,-0.369 0.06,-0.388C0.06,-0.406 0.064,-0.423 0.074,-0.441C0.084,-0.459 0.098,-0.475 0.116,-0.49C0.134,-0.505 0.156,-0.517 0.183,-0.526C0.209,-0.535 0.237,-0.54 0.268,-0.54C0.335,-0.54 0.388,-0.525 0.427,-0.495C0.466,-0.465 0.486,-0.425 0.486,-0.375C0.486,-0.352 0.482,-0.33 0.475,-0.311C0.468,-0.291 0.457,-0.274 0.441,-0.259C0.424,-0.242 0.404,-0.228 0.381,-0.216C0.358,-0.204 0.322,-0.188 0.275,-0.167C0.247,-0.154 0.22,-0.141 0.196,-0.127C0.171,-0.113 0.151,-0.099 0.136,-0.086L0.511,-0.086L0.511,-0Z" style="fill-rule:nonzero;"/>
        </g>
        <g transform="matrix(12.6992,0,0,12.6992,431.098,1613.5)">
            <path d="M0.529,-0.044L0.43,-0.044L0.43,0.178L0.336,0.178L0.336,-0.044L0.024,-0.044L0.024,-0.119L0.366,-0.537L0.43,-0.537L0.43,-0.108L0.529,-0.108L0.529,-0.044ZM0.336,-0.108L0.336,-0.428L0.073,-0.108L0.336,-0.108Z" style="fill-rule:nonzero;"/>
        </g>
        <g transform="matrix(36.7584,0,0,36.7584,444.801,1599)">
            <path d="M0.491,-0.009C0.476,-0.003 0.462,0.001 0.451,0.005C0.439,0.008 0.426,0.01 0.412,0.01C0.386,0.01 0.366,0.004 0.351,-0.008C0.336,-0.02 0.326,-0.037 0.322,-0.06L0.319,-0.06C0.298,-0.037 0.275,-0.019 0.251,-0.006C0.226,0.006 0.197,0.012 0.163,0.012C0.127,0.012 0.097,0.001 0.074,-0.021C0.051,-0.043 0.039,-0.072 0.039,-0.108C0.039,-0.126 0.042,-0.143 0.047,-0.158C0.052,-0.172 0.06,-0.186 0.07,-0.197C0.078,-0.207 0.089,-0.216 0.103,-0.223C0.116,-0.231 0.128,-0.237 0.14,-0.242C0.155,-0.247 0.184,-0.257 0.229,-0.272C0.274,-0.287 0.304,-0.299 0.32,-0.308L0.32,-0.356C0.32,-0.36 0.319,-0.368 0.317,-0.38C0.315,-0.392 0.312,-0.404 0.306,-0.415C0.299,-0.427 0.29,-0.437 0.278,-0.446C0.266,-0.455 0.249,-0.459 0.228,-0.459C0.213,-0.459 0.199,-0.457 0.186,-0.452C0.173,-0.447 0.164,-0.442 0.159,-0.436C0.159,-0.43 0.16,-0.42 0.163,-0.407C0.166,-0.395 0.168,-0.383 0.168,-0.372C0.168,-0.361 0.163,-0.35 0.153,-0.341C0.142,-0.331 0.128,-0.327 0.11,-0.327C0.094,-0.327 0.082,-0.332 0.074,-0.344C0.066,-0.356 0.063,-0.368 0.063,-0.383C0.063,-0.398 0.068,-0.412 0.078,-0.426C0.089,-0.439 0.103,-0.452 0.12,-0.462C0.134,-0.472 0.152,-0.479 0.173,-0.486C0.194,-0.492 0.214,-0.495 0.234,-0.495C0.261,-0.495 0.285,-0.493 0.305,-0.49C0.326,-0.486 0.344,-0.478 0.361,-0.465C0.377,-0.453 0.39,-0.437 0.399,-0.416C0.407,-0.396 0.412,-0.369 0.412,-0.336C0.412,-0.29 0.411,-0.249 0.41,-0.213C0.409,-0.177 0.409,-0.137 0.409,-0.095C0.409,-0.082 0.411,-0.072 0.415,-0.064C0.42,-0.057 0.426,-0.051 0.436,-0.045C0.44,-0.042 0.448,-0.041 0.459,-0.041C0.469,-0.04 0.48,-0.04 0.491,-0.04L0.491,-0.009ZM0.321,-0.267C0.293,-0.258 0.269,-0.25 0.248,-0.243C0.227,-0.235 0.208,-0.225 0.19,-0.213C0.174,-0.202 0.161,-0.189 0.151,-0.174C0.142,-0.159 0.137,-0.141 0.137,-0.12C0.137,-0.093 0.144,-0.073 0.158,-0.061C0.173,-0.048 0.191,-0.042 0.212,-0.042C0.236,-0.042 0.256,-0.047 0.273,-0.058C0.291,-0.07 0.306,-0.083 0.318,-0.098L0.321,-0.267Z" style="fill-rule:nonzero;"/>
        </g>
    </g>
    <g transform="matrix(2,0,0,2,-455.059,-3071.25)">
        <g transform="matrix(12.6992,0,0,12.6992,446.73,1613)">
            <path d="M0.511,-0L0.054,-0L0.054,-0.066C0.063,-0.076 0.075,-0.088 0.09,-0.1C0.106,-0.113 0.125,-0.126 0.146,-0.141C0.159,-0.15 0.175,-0.16 0.193,-0.17C0.211,-0.18 0.232,-0.192 0.255,-0.204C0.281,-0.218 0.3,-0.23 0.314,-0.24C0.328,-0.251 0.341,-0.264 0.352,-0.279C0.36,-0.289 0.366,-0.302 0.37,-0.317C0.375,-0.332 0.377,-0.353 0.377,-0.381C0.377,-0.422 0.366,-0.452 0.344,-0.471C0.322,-0.49 0.294,-0.5 0.26,-0.5C0.239,-0.5 0.219,-0.495 0.2,-0.487C0.181,-0.479 0.167,-0.467 0.158,-0.453C0.16,-0.442 0.163,-0.43 0.166,-0.416C0.17,-0.401 0.171,-0.387 0.171,-0.374C0.171,-0.361 0.166,-0.35 0.156,-0.341C0.146,-0.331 0.131,-0.326 0.11,-0.326C0.094,-0.326 0.082,-0.332 0.073,-0.343C0.064,-0.354 0.06,-0.369 0.06,-0.388C0.06,-0.406 0.064,-0.423 0.074,-0.441C0.084,-0.459 0.098,-0.475 0.116,-0.49C0.134,-0.505 0.156,-0.517 0.183,-0.526C0.209,-0.535 0.237,-0.54 0.268,-0.54C0.335,-0.54 0.388,-0.525 0.427,-0.495C0.466,-0.465 0.486,-0.425 0.486,-0.375C0.486,-0.352 0.482,-0.33 0.475,-0.311C0.468,-0.291 0.457,-0.274 0.441,-0.259C0.424,-0.242 0.404,-0.228 0.381,-0.216C0.358,-0.204 0.322,-0.188 0.275,-0.167C0.247,-0.154 0.22,-0.141 0.196,-0.127C0.171,-0.113 0.151,-0.099 0.136,-0.086L0.511,-0.086L0.511,-0Z" style="fill-rule:nonzero;"/>
        </g>
        <g transform="matrix(12.6992,0,0,12.6992,453.824,1613)">
            <path d="M0.545,-0.184C0.545,-0.129 0.522,-0.082 0.475,-0.042C0.427,-0.003 0.365,0.017 0.289,0.017C0.217,0.017 0.159,-0.001 0.116,-0.038C0.072,-0.074 0.051,-0.12 0.051,-0.177C0.051,-0.219 0.064,-0.254 0.089,-0.282C0.115,-0.311 0.153,-0.334 0.203,-0.354C0.161,-0.377 0.13,-0.403 0.11,-0.43C0.089,-0.458 0.079,-0.489 0.079,-0.524C0.079,-0.577 0.102,-0.621 0.147,-0.657C0.192,-0.693 0.246,-0.711 0.309,-0.711C0.371,-0.711 0.422,-0.694 0.461,-0.66C0.5,-0.626 0.52,-0.584 0.52,-0.533C0.52,-0.5 0.509,-0.469 0.487,-0.439C0.466,-0.41 0.434,-0.386 0.393,-0.367C0.447,-0.344 0.486,-0.318 0.51,-0.29C0.533,-0.262 0.545,-0.227 0.545,-0.184ZM0.427,-0.538C0.427,-0.578 0.415,-0.61 0.392,-0.635C0.368,-0.66 0.338,-0.672 0.301,-0.672C0.264,-0.672 0.234,-0.66 0.211,-0.636C0.188,-0.613 0.176,-0.583 0.176,-0.547C0.176,-0.513 0.189,-0.484 0.216,-0.46C0.243,-0.437 0.29,-0.411 0.358,-0.384C0.383,-0.4 0.4,-0.421 0.411,-0.446C0.422,-0.472 0.427,-0.503 0.427,-0.538ZM0.448,-0.161C0.448,-0.181 0.443,-0.199 0.435,-0.215C0.426,-0.23 0.413,-0.244 0.396,-0.257C0.381,-0.269 0.358,-0.282 0.33,-0.296C0.301,-0.309 0.271,-0.323 0.237,-0.337C0.206,-0.32 0.183,-0.298 0.168,-0.272C0.154,-0.246 0.146,-0.216 0.146,-0.183C0.146,-0.135 0.161,-0.096 0.189,-0.067C0.217,-0.037 0.254,-0.022 0.301,-0.022C0.346,-0.022 0.382,-0.035 0.408,-0.062C0.435,-0.088 0.448,-0.121 0.448,-0.161Z" style="fill-rule:nonzero;"/>
        </g>
    </g>
    <g transform="matrix(2,0,0,2,-455.059,-3071.25)">
        <g transform="matrix(42.224,0,0,42.224,469.744,1599)">
            <path d="M0.491,-0.009C0.476,-0.003 0.462,0.001 0.451,0.005C0.439,0.008 0.426,0.01 0.412,0.01C0.386,0.01 0.366,0.004 0.351,-0.008C0.336,-0.02 0.326,-0.037 0.322,-0.06L0.319,-0.06C0.298,-0.037 0.275,-0.019 0.251,-0.006C0.226,0.006 0.197,0.012 0.163,0.012C0.127,0.012 0.097,0.001 0.074,-0.021C0.051,-0.043 0.039,-0.072 0.039,-0.108C0.039,-0.126 0.042,-0.143 0.047,-0.158C0.052,-0.172 0.06,-0.186 0.07,-0.197C0.078,-0.207 0.089,-0.216 0.103,-0.223C0.116,-0.231 0.128,-0.237 0.14,-0.242C0.155,-0.247 0.184,-0.257 0.229,-0.272C0.274,-0.287 0.304,-0.299 0.32,-0.308L0.32,-0.356C0.32,-0.36 0.319,-0.368 0.317,-0.38C0.315,-0.392 0.312,-0.404 0.306,-0.415C0.299,-0.427 0.29,-0.437 0.278,-0.446C0.266,-0.455 0.249,-0.459 0.228,-0.459C0.213,-0.459 0.199,-0.457 0.186,-0.452C0.173,-0.447 0.164,-0.442 0.159,-0.436C0.159,-0.43 0.16,-0.42 0.163,-0.407C0.166,-0.395 0.168,-0.383 0.168,-0.372C0.168,-0.361 0.163,-0.35 0.153,-0.341C0.142,-0.331 0.128,-0.327 0.11,-0.327C0.094,-0.327 0.082,-0.332 0.074,-0.344C0.066,-0.356 0.063,-0.368 0.063,-0.383C0.063,-0.398 0.068,-0.412 0.078,-0.426C0.089,-0.439 0.103,-0.452 0.12,-0.462C0.134,-0.472 0.152,-0.479 0.173,-0.486C0.194,-0.492 0.214,-0.495 0.234,-0.495C0.261,-0.495 0.285,-0.493 0.305,-0.49C0.326,-0.486 0.344,-0.478 0.361,-0.465C0.377,-0.453 0.39,-0.437 0.399,-0.416C0.407,-0.396 0.412,-0.369 0.412,-0.336C0.412,-0.29 0.411,-0.249 0.41,-0.213C0.409,-0.177 0.409,-0.137 0.409,-0.095C0.409,-0.082 0.411,-0.072 0.415,-0.064C0.42,-0.057 0.426,-0.051 0.436,-0.045C0.44,-0.042 0.448,-0.041 0.459,-0.041C0.469,-0.04 0.48,-0.04 0.491,-0.04L0.491,-0.009ZM0.321,-0.267C0.293,-0.258 0.269,-0.25 0.248,-0.243C0.227,-0.235 0.208,-0.225 0.19,-0.213C0.174,-0.202 0.161,-0.189 0.151,-0.174C0.142,-0.159 0.137,-0.141 0.137,-0.12C0.137,-0.093 0.144,-0.073 0.158,-0.061C0.173,-0.048 0.191,-0.042 0.212,-0.042C0.236,-0.042 0.256,-0.047 0.273,-0.058C0.291,-0.07 0.306,-0.083 0.318,-0.098L0.321,-0.267Z" style="fill-rule:nonzero;"/>
        </g>
    </g>
    <g transform="matrix(2,0,0,2,-455.059,-3071.25)">
        <g transform="matrix(12.6992,0,0,12.6992,473.325,1613.5)">
            <path d="M0.238,0.178C0.207,0.178 0.179,0.174 0.154,0.167C0.128,0.159 0.107,0.149 0.088,0.136C0.07,0.123 0.056,0.108 0.046,0.091C0.036,0.074 0.031,0.056 0.031,0.039C0.031,0.023 0.035,0.008 0.043,-0.005C0.051,-0.017 0.063,-0.024 0.081,-0.024C0.1,-0.024 0.115,-0.019 0.125,-0.01C0.135,0 0.141,0.011 0.141,0.023C0.141,0.034 0.139,0.047 0.135,0.063C0.132,0.079 0.129,0.09 0.127,0.097C0.13,0.1 0.134,0.104 0.14,0.109C0.146,0.114 0.153,0.118 0.162,0.122C0.173,0.127 0.183,0.131 0.195,0.134C0.206,0.137 0.222,0.138 0.243,0.138C0.263,0.138 0.281,0.135 0.3,0.128C0.318,0.122 0.333,0.111 0.347,0.097C0.361,0.082 0.373,0.065 0.381,0.045C0.389,0.025 0.393,-0.002 0.393,-0.034C0.393,-0.052 0.391,-0.069 0.387,-0.086C0.383,-0.104 0.376,-0.119 0.366,-0.131C0.356,-0.144 0.342,-0.154 0.325,-0.161C0.308,-0.168 0.285,-0.171 0.259,-0.171L0.195,-0.171L0.195,-0.228L0.237,-0.228C0.282,-0.228 0.315,-0.24 0.334,-0.265C0.354,-0.289 0.364,-0.327 0.364,-0.376C0.364,-0.417 0.355,-0.448 0.335,-0.469C0.316,-0.489 0.289,-0.5 0.254,-0.5C0.237,-0.5 0.223,-0.497 0.212,-0.493C0.201,-0.489 0.192,-0.485 0.186,-0.481C0.177,-0.477 0.171,-0.472 0.166,-0.466C0.16,-0.461 0.156,-0.457 0.154,-0.454C0.156,-0.444 0.159,-0.431 0.162,-0.416C0.165,-0.401 0.167,-0.386 0.167,-0.373C0.167,-0.361 0.162,-0.35 0.152,-0.34C0.141,-0.33 0.126,-0.326 0.106,-0.326C0.089,-0.326 0.077,-0.332 0.069,-0.344C0.061,-0.357 0.057,-0.371 0.057,-0.387C0.057,-0.404 0.061,-0.421 0.071,-0.439C0.08,-0.457 0.094,-0.473 0.113,-0.488C0.131,-0.504 0.154,-0.516 0.181,-0.525C0.207,-0.535 0.238,-0.54 0.273,-0.54C0.313,-0.54 0.346,-0.534 0.372,-0.522C0.399,-0.51 0.419,-0.495 0.434,-0.479C0.449,-0.462 0.459,-0.444 0.464,-0.426C0.47,-0.408 0.473,-0.392 0.473,-0.379C0.473,-0.363 0.47,-0.347 0.466,-0.33C0.461,-0.314 0.454,-0.299 0.443,-0.285C0.432,-0.269 0.417,-0.255 0.398,-0.243C0.379,-0.23 0.356,-0.22 0.328,-0.212L0.328,-0.205C0.346,-0.203 0.365,-0.199 0.386,-0.192C0.407,-0.186 0.425,-0.176 0.442,-0.164C0.459,-0.15 0.473,-0.133 0.484,-0.112C0.495,-0.091 0.501,-0.064 0.501,-0.032C0.501,0.03 0.476,0.081 0.426,0.12C0.376,0.159 0.313,0.178 0.238,0.178Z" style="fill-rule:nonzero;"/>
        </g>
        <g transform="matrix(12.6992,0,0,12.6992,480.332,1613.5)">
            <path d="M0.511,-0L0.054,-0L0.054,-0.066C0.063,-0.076 0.075,-0.088 0.09,-0.1C0.106,-0.113 0.125,-0.126 0.146,-0.141C0.159,-0.15 0.175,-0.16 0.193,-0.17C0.211,-0.18 0.232,-0.192 0.255,-0.204C0.281,-0.218 0.3,-0.23 0.314,-0.24C0.328,-0.251 0.341,-0.264 0.352,-0.279C0.36,-0.289 0.366,-0.302 0.37,-0.317C0.375,-0.332 0.377,-0.353 0.377,-0.381C0.377,-0.422 0.366,-0.452 0.344,-0.471C0.322,-0.49 0.294,-0.5 0.26,-0.5C0.239,-0.5 0.219,-0.495 0.2,-0.487C0.181,-0.479 0.167,-0.467 0.158,-0.453C0.16,-0.442 0.163,-0.43 0.166,-0.416C0.17,-0.401 0.171,-0.387 0.171,-0.374C0.171,-0.361 0.166,-0.35 0.156,-0.341C0.146,-0.331 0.131,-0.326 0.11,-0.326C0.094,-0.326 0.082,-0.332 0.073,-0.343C0.064,-0.354 0.06,-0.369 0.06,-0.388C0.06,-0.406 0.064,-0.423 0.074,-0.441C0.084,-0.459 0.098,-0.475 0.116,-0.49C0.134,-0.505 0.156,-0.517 0.183,-0.526C0.209,-0.535 0.237,-0.54 0.268,-0.54C0.335,-0.54 0.388,-0.525 0.427,-0.495C0.466,-0.465 0.486,-0.425 0.486,-0.375C0.486,-0.352 0.482,-0.33 0.475,-0.311C0.468,-0.291 0.457,-0.274 0.441,-0.259C0.424,-0.242 0.404,-0.228 0.381,-0.216C0.358,-0.204 0.322,-0.188 0.275,-0.167C0.247,-0.154 0.22,-0.141 0.196,-0.127C0.171,-0.113 0.151,-0.099 0.136,-0.086L0.511,-0.086L0.511,-0Z" style="fill-rule:nonzero;"/>
        </g>
    </g>
    <g transform="matrix(2,0,0,2,-455.059,-3071.25)">
        <g transform="matrix(48.5024,0,0,48.5024,498.397,1599)">
            <path d="M0.491,-0.009C0.476,-0.003 0.462,0.001 0.451,0.005C0.439,0.008 0.426,0.01 0.412,0.01C0.386,0.01 0.366,0.004 0.351,-0.008C0.336,-0.02 0.326,-0.037 0.322,-0.06L0.319,-0.06C0.298,-0.037 0.275,-0.019 0.251,-0.006C0.226,0.006 0.197,0.012 0.163,0.012C0.127,0.012 0.097,0.001 0.074,-0.021C0.051,-0.043 0.039,-0.072 0.039,-0.108C0.039,-0.126 0.042,-0.143 0.047,-0.158C0.052,-0.172 0.06,-0.186 0.07,-0.197C0.078,-0.207 0.089,-0.216 0.103,-0.223C0.116,-0.231 0.128,-0.237 0.14,-0.242C0.155,-0.247 0.184,-0.257 0.229,-0.272C0.274,-0.287 0.304,-0.299 0.32,-0.308L0.32,-0.356C0.32,-0.36 0.319,-0.368 0.317,-0.38C0.315,-0.392 0.312,-0.404 0.306,-0.415C0.299,-0.427 0.29,-0.437 0.278,-0.446C0.266,-0.455 0.249,-0.459 0.228,-0.459C0.213,-0.459 0.199,-0.457 0.186,-0.452C0.173,-0.447 0.164,-0.442 0.159,-0.436C0.159,-0.43 0.16,-0.42 0.163,-0.407C0.166,-0.395 0.168,-0.383 0.168,-0.372C0.168,-0.361 0.163,-0.35 0.153,-0.341C0.142,-0.331 0.128,-0.327 0.11,-0.327C0.094,-0.327 0.082,-0.332 0.074,-0.344C0.066,-0.356 0.063,-0.368 0.063,-0.383C0.063,-0.398 0.068,-0.412 0.078,-0.426C0.089,-0.439 0.103,-0.452 0.12,-0.462C0.134,-0.472 0.152,-0.479 0.173,-0.486C0.194,-0.492 0.214,-0.495 0.234,-0.495C0.261,-0.495 0.285,-0.493 0.305,-0.49C0.326,-0.486 0.344,-0.478 0.361,-0.465C0.377,-0.453 0.39,-0.437 0.399,-0.416C0.407,-0.396 0.412,-0.369 0.412,-0.336C0.412,-0.29 0.411,-0.249 0.41,-0.213C0.409,-0.177 0.409,-0.137 0.409,-0.095C0.409,-0.082 0.411,-0.072 0.415,-0.064C0.42,-0.057 0.426,-0.051 0.436,-0.045C0.44,-0.042 0.448,-0.041 0.459,-0.041C0.469,-0.04 0.48,-0.04 0.491,-0.04L0.491,-0.009ZM0.321,-0.267C0.293,-0.258 0.269,-0.25 0.248,-0.243C0.227,-0.235 0.208,-0.225 0.19,-0.213C0.174,-0.202 0.161,-0.189 0.151,-0.174C0.142,-0.159 0.137,-0.141 0.137,-0.12C0.137,-0.093 0.144,-0.073 0.158,-0.061C0.173,-0.048 0.191,-0.042 0.212,-0.042C0.236,-0.042 0.256,-0.047 0.273,-0.058C0.291,-0.07 0.306,-0.083 0.318,-0.098L0.321,-0.267Z" style="fill-rule:nonzero;"/>
        </g>
    </g>
    <g transform="matrix(2,0,0,2,-455.059,-3071.25)">
        <g transform="matrix(12.6992,0,0,12.6992,503.513,1614.5)">
            <path d="M0.238,0.178C0.207,0.178 0.179,0.174 0.154,0.167C0.128,0.159 0.107,0.149 0.088,0.136C0.07,0.123 0.056,0.108 0.046,0.091C0.036,0.074 0.031,0.056 0.031,0.039C0.031,0.023 0.035,0.008 0.043,-0.005C0.051,-0.017 0.063,-0.024 0.081,-0.024C0.1,-0.024 0.115,-0.019 0.125,-0.01C0.135,0 0.141,0.011 0.141,0.023C0.141,0.034 0.139,0.047 0.135,0.063C0.132,0.079 0.129,0.09 0.127,0.097C0.13,0.1 0.134,0.104 0.14,0.109C0.146,0.114 0.153,0.118 0.162,0.122C0.173,0.127 0.183,0.131 0.195,0.134C0.206,0.137 0.222,0.138 0.243,0.138C0.263,0.138 0.281,0.135 0.3,0.128C0.318,0.122 0.333,0.111 0.347,0.097C0.361,0.082 0.373,0.065 0.381,0.045C0.389,0.025 0.393,-0.002 0.393,-0.034C0.393,-0.052 0.391,-0.069 0.387,-0.086C0.383,-0.104 0.376,-0.119 0.366,-0.131C0.356,-0.144 0.342,-0.154 0.325,-0.161C0.308,-0.168 0.285,-0.171 0.259,-0.171L0.195,-0.171L0.195,-0.228L0.237,-0.228C0.282,-0.228 0.315,-0.24 0.334,-0.265C0.354,-0.289 0.364,-0.327 0.364,-0.376C0.364,-0.417 0.355,-0.448 0.335,-0.469C0.316,-0.489 0.289,-0.5 0.254,-0.5C0.237,-0.5 0.223,-0.497 0.212,-0.493C0.201,-0.489 0.192,-0.485 0.186,-0.481C0.177,-0.477 0.171,-0.472 0.166,-0.466C0.16,-0.461 0.156,-0.457 0.154,-0.454C0.156,-0.444 0.159,-0.431 0.162,-0.416C0.165,-0.401 0.167,-0.386 0.167,-0.373C0.167,-0.361 0.162,-0.35 0.152,-0.34C0.141,-0.33 0.126,-0.326 0.106,-0.326C0.089,-0.326 0.077,-0.332 0.069,-0.344C0.061,-0.357 0.057,-0.371 0.057,-0.387C0.057,-0.404 0.061,-0.421 0.071,-0.439C0.08,-0.457 0.094,-0.473 0.113,-0.488C0.131,-0.504 0.154,-0.516 0.181,-0.525C0.207,-0.535 0.238,-0.54 0.273,-0.54C0.313,-0.54 0.346,-0.534 0.372,-0.522C0.399,-0.51 0.419,-0.495 0.434,-0.479C0.449,-0.462 0.459,-0.444 0.464,-0.426C0.47,-0.408 0.473,-0.392 0.473,-0.379C0.473,-0.363 0.47,-0.347 0.466,-0.33C0.461,-0.314 0.454,-0.299 0.443,-0.285C0.432,-0.269 0.417,-0.255 0.398,-0.243C0.379,-0.23 0.356,-0.22 0.328,-0.212L0.328,-0.205C0.346,-0.203 0.365,-0.199 0.386,-0.192C0.407,-0.186 0.425,-0.176 0.442,-0.164C0.459,-0.15 0.473,-0.133 0.484,-0.112C0.495,-0.091 0.501,-0.064 0.501,-0.032C0.501,0.03 0.476,0.081 0.426,0.12C0.376,0.159 0.313,0.178 0.238,0.178Z" style="fill-rule:nonzero;"/>
        </g>
        <g transform="matrix(12.6992,0,0,12.6992,510.52,1614.5)">
            <path d="M0.525,-0.225C0.525,-0.191 0.519,-0.16 0.507,-0.13C0.494,-0.1 0.478,-0.075 0.458,-0.054C0.434,-0.03 0.407,-0.013 0.379,-0.001C0.35,0.01 0.32,0.016 0.289,0.016C0.252,0.016 0.22,0.009 0.19,-0.004C0.161,-0.018 0.136,-0.037 0.116,-0.061C0.095,-0.086 0.079,-0.116 0.067,-0.152C0.056,-0.188 0.05,-0.228 0.05,-0.272C0.05,-0.389 0.085,-0.487 0.154,-0.566C0.223,-0.646 0.316,-0.694 0.432,-0.71L0.441,-0.666L0.397,-0.658C0.326,-0.635 0.272,-0.6 0.233,-0.552C0.195,-0.504 0.17,-0.445 0.158,-0.376C0.186,-0.401 0.214,-0.418 0.241,-0.428C0.269,-0.438 0.297,-0.443 0.328,-0.443C0.382,-0.443 0.428,-0.423 0.467,-0.381C0.506,-0.339 0.525,-0.287 0.525,-0.225ZM0.419,-0.212C0.419,-0.265 0.407,-0.307 0.383,-0.339C0.358,-0.371 0.326,-0.387 0.285,-0.387C0.261,-0.387 0.238,-0.382 0.217,-0.373C0.196,-0.364 0.176,-0.349 0.156,-0.327C0.156,-0.323 0.155,-0.314 0.155,-0.3C0.154,-0.286 0.154,-0.275 0.154,-0.267C0.154,-0.19 0.166,-0.131 0.191,-0.088C0.216,-0.045 0.249,-0.023 0.29,-0.023C0.328,-0.023 0.36,-0.04 0.383,-0.073C0.407,-0.107 0.419,-0.153 0.419,-0.212Z" style="fill-rule:nonzero;"/>
        </g>
    </g>
    <g transform="matrix(2,0,0,2,-455.059,-3071.25)">
        <g transform="matrix(55.7152,0,0,55.7152,531.314,1599)">
            <path d="M0.491,-0.009C0.476,-0.003 0.462,0.001 0.451,0.005C0.439,0.008 0.426,0.01 0.412,0.01C0.386,0.01 0.366,0.004 0.351,-0.008C0.336,-0.02 0.326,-0.037 0.322,-0.06L0.319,-0.06C0.298,-0.037 0.275,-0.019 0.251,-0.006C0.226,0.006 0.197,0.012 0.163,0.012C0.127,0.012 0.097,0.001 0.074,-0.021C0.051,-0.043 0.039,-0.072 0.039,-0.108C0.039,-0.126 0.042,-0.143 0.047,-0.158C0.052,-0.172 0.06,-0.186 0.07,-0.197C0.078,-0.207 0.089,-0.216 0.103,-0.223C0.116,-0.231 0.128,-0.237 0.14,-0.242C0.155,-0.247 0.184,-0.257 0.229,-0.272C0.274,-0.287 0.304,-0.299 0.32,-0.308L0.32,-0.356C0.32,-0.36 0.319,-0.368 0.317,-0.38C0.315,-0.392 0.312,-0.404 0.306,-0.415C0.299,-0.427 0.29,-0.437 0.278,-0.446C0.266,-0.455 0.249,-0.459 0.228,-0.459C0.213,-0.459 0.199,-0.457 0.186,-0.452C0.173,-0.447 0.164,-0.442 0.159,-0.436C0.159,-0.43 0.16,-0.42 0.163,-0.407C0.166,-0.395 0.168,-0.383 0.168,-0.372C0.168,-0.361 0.163,-0.35 0.153,-0.341C0.142,-0.331 0.128,-0.327 0.11,-0.327C0.094,-0.327 0.082,-0.332 0.074,-0.344C0.066,-0.356 0.063,-0.368 0.063,-0.383C0.063,-0.398 0.068,-0.412 0.078,-0.426C0.089,-0.439 0.103,-0.452 0.12,-0.462C0.134,-0.472 0.152,-0.479 0.173,-0.486C0.194,-0.492 0.214,-0.495 0.234,-0.495C0.261,-0.495 0.285,-0.493 0.305,-0.49C0.326,-0.486 0.344,-0.478 0.361,-0.465C0.377,-0.453 0.39,-0.437 0.399,-0.416C0.407,-0.396 0.412,-0.369 0.412,-0.336C0.412,-0.29 0.411,-0.249 0.41,-0.213C0.409,-0.177 0.409,-0.137 0.409,-0.095C0.409,-0.082 0.411,-0.072 0.415,-0.064C0.42,-0.057 0.426,-0.051 0.436,-0.045C0.44,-0.042 0.448,-0.041 0.459,-0.041C0.469,-0.04 0.48,-0.04 0.491,-0.04L0.491,-0.009ZM0.321,-0.267C0.293,-0.258 0.269,-0.25 0.248,-0.243C0.227,-0.235 0.208,-0.225 0.19,-0.213C0.174,-0.202 0.161,-0.189 0.151,-0.174C0.142,-0.159 0.137,-0.141 0.137,-0.12C0.137,-0.093 0.144,-0.073 0.158,-0.061C0.173,-0.048 0.191,-0.042 0.212,-0.042C0.236,-0.042 0.256,-0.047 0.273,-0.058C0.291,-0.07 0.306,-0.083 0.318,-0.098L0.321,-0.267Z" style="fill-rule:nonzero;"/>
        </g>
    </g>
    <g transform="matrix(2,0,0,2,-455.059,-3071.25)">
        <g transform="matrix(12.6992,0,0,12.6992,538.21,1614.5)">
            <path d="M0.529,-0.044L0.43,-0.044L0.43,0.178L0.336,0.178L0.336,-0.044L0.024,-0.044L0.024,-0.119L0.366,-0.537L0.43,-0.537L0.43,-0.108L0.529,-0.108L0.529,-0.044ZM0.336,-0.108L0.336,-0.428L0.073,-0.108L0.336,-0.108Z" style="fill-rule:nonzero;"/>
        </g>
        <g transform="matrix(12.6992,0,0,12.6992,545.384,1614.5)">
            <path d="M0.511,-0L0.054,-0L0.054,-0.066C0.063,-0.076 0.075,-0.088 0.09,-0.1C0.106,-0.113 0.125,-0.126 0.146,-0.141C0.159,-0.15 0.175,-0.16 0.193,-0.17C0.211,-0.18 0.232,-0.192 0.255,-0.204C0.281,-0.218 0.3,-0.23 0.314,-0.24C0.328,-0.251 0.341,-0.264 0.352,-0.279C0.36,-0.289 0.366,-0.302 0.37,-0.317C0.375,-0.332 0.377,-0.353 0.377,-0.381C0.377,-0.422 0.366,-0.452 0.344,-0.471C0.322,-0.49 0.294,-0.5 0.26,-0.5C0.239,-0.5 0.219,-0.495 0.2,-0.487C0.181,-0.479 0.167,-0.467 0.158,-0.453C0.16,-0.442 0.163,-0.43 0.166,-0.416C0.17,-0.401 0.171,-0.387 0.171,-0.374C0.171,-0.361 0.166,-0.35 0.156,-0.341C0.146,-0.331 0.131,-0.326 0.11,-0.326C0.094,-0.326 0.082,-0.332 0.073,-0.343C0.064,-0.354 0.06,-0.369 0.06,-0.388C0.06,-0.406 0.064,-0.423 0.074,-0.441C0.084,-0.459 0.098,-0.475 0.116,-0.49C0.134,-0.505 0.156,-0.517 0.183,-0.526C0.209,-0.535 0.237,-0.54 0.268,-0.54C0.335,-0.54 0.388,-0.525 0.427,-0.495C0.466,-0.465 0.486,-0.425 0.486,-0.375C0.486,-0.352 0.482,-0.33 0.475,-0.311C0.468,-0.291 0.457,-0.274 0.441,-0.259C0.424,-0.242 0.404,-0.228 0.381,-0.216C0.358,-0.204 0.322,-0.188 0.275,-0.167C0.247,-0.154 0.22,-0.141 0.196,-0.127C0.171,-0.113 0.151,-0.099 0.136,-0.086L0.511,-0.086L0.511,-0Z" style="fill-rule:nonzero;"/>
        </g>
    </g>
    <g transform="matrix(2,0,0,2,-455.059,-3071.25)">
        <g transform="matrix(64,0,0,64,569.125,1599)">
            <path d="M0.491,-0.009C0.476,-0.003 0.462,0.001 0.451,0.005C0.439,0.008 0.426,0.01 0.412,0.01C0.386,0.01 0.366,0.004 0.351,-0.008C0.336,-0.02 0.326,-0.037 0.322,-0.06L0.319,-0.06C0.298,-0.037 0.275,-0.019 0.251,-0.006C0.226,0.006 0.197,0.012 0.163,0.012C0.127,0.012 0.097,0.001 0.074,-0.021C0.051,-0.043 0.039,-0.072 0.039,-0.108C0.039,-0.126 0.042,-0.143 0.047,-0.158C0.052,-0.172 0.06,-0.186 0.07,-0.197C0.078,-0.207 0.089,-0.216 0.103,-0.223C0.116,-0.231 0.128,-0.237 0.14,-0.242C0.155,-0.247 0.184,-0.257 0.229,-0.272C0.274,-0.287 0.304,-0.299 0.32,-0.308L0.32,-0.356C0.32,-0.36 0.319,-0.368 0.317,-0.38C0.315,-0.392 0.312,-0.404 0.306,-0.415C0.299,-0.427 0.29,-0.437 0.278,-0.446C0.266,-0.455 0.249,-0.459 0.228,-0.459C0.213,-0.459 0.199,-0.457 0.186,-0.452C0.173,-0.447 0.164,-0.442 0.159,-0.436C0.159,-0.43 0.16,-0.42 0.163,-0.407C0.166,-0.395 0.168,-0.383 0.168,-0.372C0.168,-0.361 0.163,-0.35 0.153,-0.341C0.142,-0.331 0.128,-0.327 0.11,-0.327C0.094,-0.327 0.082,-0.332 0.074,-0.344C0.066,-0.356 0.063,-0.368 0.063,-0.383C0.063,-0.398 0.068,-0.412 0.078,-0.426C0.089,-0.439 0.103,-0.452 0.12,-0.462C0.134,-0.472 0.152,-0.479 0.173,-0.486C0.194,-0.492 0.214,-0.495 0.234,-0.495C0.261,-0.495 0.285,-0.493 0.305,-0.49C0.326,-0.486 0.344,-0.478 0.361,-0.465C0.377,-0.453 0.39,-0.437 0.399,-0.416C0.407,-0.396 0.412,-0.369 0.412,-0.336C0.412,-0.29 0.411,-0.249 0.41,-0.213C0.409,-0.177 0.409,-0.137 0.409,-0.095C0.409,-0.082 0.411,-0.072 0.415,-0.064C0.42,-0.057 0.426,-0.051 0.436,-0.045C0.44,-0.042 0.448,-0.041 0.459,-0.041C0.469,-0.04 0.48,-0.04 0.491,-0.04L0.491,-0.009ZM0.321,-0.267C0.293,-0.258 0.269,-0.25 0.248,-0.243C0.227,-0.235 0.208,-0.225 0.19,-0.213C0.174,-0.202 0.161,-0.189 0.151,-0.174C0.142,-0.159 0.137,-0.141 0.137,-0.12C0.137,-0.093 0.144,-0.073 0.158,-0.061C0.173,-0.048 0.191,-0.042 0.212,-0.042C0.236,-0.042 0.256,-0.047 0.273,-0.058C0.291,-0.07 0.306,-0.083 0.318,-0.098L0.321,-0.267Z" style="fill-rule:nonzero;"/>
        </g>
    </g>
    <g transform="matrix(2,0,0,2,-455.059,-3071.25)">
        <g transform="matrix(12.6992,0,0,12.6992,577.877,1614.5)">
            <path d="M0.529,-0.044L0.43,-0.044L0.43,0.178L0.336,0.178L0.336,-0.044L0.024,-0.044L0.024,-0.119L0.366,-0.537L0.43,-0.537L0.43,-0.108L0.529,-0.108L0.529,-0.044ZM0.336,-0.108L0.336,-0.428L0.073,-0.108L0.336,-0.108Z" style="fill-rule:nonzero;"/>
        </g>
        <g transform="matrix(12.6992,0,0,12.6992,585.051,1614.5)">
            <path d="M0.545,-0.184C0.545,-0.129 0.522,-0.082 0.475,-0.042C0.427,-0.003 0.365,0.017 0.289,0.017C0.217,0.017 0.159,-0.001 0.116,-0.038C0.072,-0.074 0.051,-0.12 0.051,-0.177C0.051,-0.219 0.064,-0.254 0.089,-0.282C0.115,-0.311 0.153,-0.334 0.203,-0.354C0.161,-0.377 0.13,-0.403 0.11,-0.43C0.089,-0.458 0.079,-0.489 0.079,-0.524C0.079,-0.577 0.102,-0.621 0.147,-0.657C0.192,-0.693 0.246,-0.711 0.309,-0.711C0.371,-0.711 0.422,-0.694 0.461,-0.66C0.5,-0.626 0.52,-0.584 0.52,-0.533C0.52,-0.5 0.509,-0.469 0.487,-0.439C0.466,-0.41 0.434,-0.386 0.393,-0.367C0.447,-0.344 0.486,-0.318 0.51,-0.29C0.533,-0.262 0.545,-0.227 0.545,-0.184ZM0.427,-0.538C0.427,-0.578 0.415,-0.61 0.392,-0.635C0.368,-0.66 0.338,-0.672 0.301,-0.672C0.264,-0.672 0.234,-0.66 0.211,-0.636C0.188,-0.613 0.176,-0.583 0.176,-0.547C0.176,-0.513 0.189,-0.484 0.216,-0.46C0.243,-0.437 0.29,-0.411 0.358,-0.384C0.383,-0.4 0.4,-0.421 0.411,-0.446C0.422,-0.472 0.427,-0.503 0.427,-0.538ZM0.448,-0.161C0.448,-0.181 0.443,-0.199 0.435,-0.215C0.426,-0.23 0.413,-0.244 0.396,-0.257C0.381,-0.269 0.358,-0.282 0.33,-0.296C0.301,-0.309 0.271,-0.323 0.237,-0.337C0.206,-0.32 0.183,-0.298 0.168,-0.272C0.154,-0.246 0.146,-0.216 0.146,-0.183C0.146,-0.135 0.161,-0.096 0.189,-0.067C0.217,-0.037 0.254,-0.022 0.301,-0.022C0.346,-0.022 0.382,-0.035 0.408,-0.062C0.435,-0.088 0.448,-0.121 0.448,-0.161Z" style="fill-rule:nonzero;"/>
        </g>
    </g>
    <g transform="matrix(2,0,0,2,-455.059,-3071.25)">
        <g transform="matrix(73.5168,0,0,73.5168,612.555,1599)">
            <path d="M0.491,-0.009C0.476,-0.003 0.462,0.001 0.451,0.005C0.439,0.008 0.426,0.01 0.412,0.01C0.386,0.01 0.366,0.004 0.351,-0.008C0.336,-0.02 0.326,-0.037 0.322,-0.06L0.319,-0.06C0.298,-0.037 0.275,-0.019 0.251,-0.006C0.226,0.006 0.197,0.012 0.163,0.012C0.127,0.012 0.097,0.001 0.074,-0.021C0.051,-0.043 0.039,-0.072 0.039,-0.108C0.039,-0.126 0.042,-0.143 0.047,-0.158C0.052,-0.172 0.06,-0.186 0.07,-0.197C0.078,-0.207 0.089,-0.216 0.103,-0.223C0.116,-0.231 0.128,-0.237 0.14,-0.242C0.155,-0.247 0.184,-0.257 0.229,-0.272C0.274,-0.287 0.304,-0.299 0.32,-0.308L0.32,-0.356C0.32,-0.36 0.319,-0.368 0.317,-0.38C0.315,-0.392 0.312,-0.404 0.306,-0.415C0.299,-0.427 0.29,-0.437 0.278,-0.446C0.266,-0.455 0.249,-0.459 0.228,-0.459C0.213,-0.459 0.199,-0.457 0.186,-0.452C0.173,-0.447 0.164,-0.442 0.159,-0.436C0.159,-0.43 0.16,-0.42 0.163,-0.407C0.166,-0.395 0.168,-0.383 0.168,-0.372C0.168,-0.361 0.163,-0.35 0.153,-0.341C0.142,-0.331 0.128,-0.327 0.11,-0.327C0.094,-0.327 0.082,-0.332 0.074,-0.344C0.066,-0.356 0.063,-0.368 0.063,-0.383C0.063,-0.398 0.068,-0.412 0.078,-0.426C0.089,-0.439 0.103,-0.452 0.12,-0.462C0.134,-0.472 0.152,-0.479 0.173,-0.486C0.194,-0.492 0.214,-0.495 0.234,-0.495C0.261,-0.495 0.285,-0.493 0.305,-0.49C0.326,-0.486 0.344,-0.478 0.361,-0.465C0.377,-0.453 0.39,-0.437 0.399,-0.416C0.407,-0.396 0.412,-0.369 0.412,-0.336C0.412,-0.29 0.411,-0.249 0.41,-0.213C0.409,-0.177 0.409,-0.137 0.409,-0.095C0.409,-0.082 0.411,-0.072 0.415,-0.064C0.42,-0.057 0.426,-0.051 0.436,-0.045C0.44,-0.042 0.448,-0.041 0.459,-0.041C0.469,-0.04 0.48,-0.04 0.491,-0.04L0.491,-0.009ZM0.321,-0.267C0.293,-0.258 0.269,-0.25 0.248,-0.243C0.227,-0.235 0.208,-0.225 0.19,-0.213C0.174,-0.202 0.161,-0.189 0.151,-0.174C0.142,-0.159 0.137,-0.141 0.137,-0.12C0.137,-0.093 0.144,-0.073 0.158,-0.061C0.173,-0.048 0.191,-0.042 0.212,-0.042C0.236,-0.042 0.256,-0.047 0.273,-0.058C0.291,-0.07 0.306,-0.083 0.318,-0.098L0.321,-0.267Z" style="fill-rule:nonzero;"/>
        </g>
    </g>
    <g transform="matrix(2,0,0,2,-455.059,-3071.25)">
        <g transform="matrix(12.6992,0,0,12.6992,624.369,1615.5)">
            <path d="M0.412,-0.229C0.433,-0.212 0.451,-0.19 0.465,-0.164C0.479,-0.137 0.486,-0.104 0.486,-0.063C0.486,0.007 0.462,0.064 0.415,0.11C0.367,0.155 0.306,0.178 0.232,0.178C0.175,0.178 0.127,0.165 0.088,0.138C0.049,0.111 0.029,0.079 0.029,0.043C0.029,0.027 0.033,0.012 0.041,-0C0.049,-0.012 0.062,-0.019 0.079,-0.019C0.098,-0.019 0.113,-0.013 0.123,-0.003C0.134,0.007 0.139,0.018 0.139,0.03C0.139,0.041 0.137,0.054 0.133,0.069C0.13,0.085 0.127,0.097 0.125,0.104C0.128,0.106 0.132,0.109 0.138,0.113C0.144,0.117 0.151,0.121 0.159,0.125C0.167,0.128 0.177,0.131 0.19,0.134C0.202,0.137 0.216,0.138 0.232,0.138C0.253,0.138 0.273,0.134 0.292,0.125C0.31,0.117 0.326,0.104 0.338,0.088C0.352,0.07 0.363,0.049 0.37,0.026C0.377,0.002 0.38,-0.027 0.38,-0.063C0.38,-0.109 0.368,-0.147 0.342,-0.177C0.316,-0.207 0.283,-0.222 0.241,-0.222C0.215,-0.222 0.191,-0.217 0.168,-0.208C0.146,-0.198 0.125,-0.181 0.107,-0.159L0.075,-0.171L0.116,-0.524L0.466,-0.524L0.466,-0.437L0.156,-0.437L0.13,-0.23C0.145,-0.24 0.164,-0.251 0.188,-0.261C0.212,-0.271 0.238,-0.276 0.267,-0.276C0.291,-0.276 0.316,-0.273 0.341,-0.265C0.367,-0.258 0.39,-0.246 0.412,-0.229Z" style="fill-rule:nonzero;"/>
        </g>
        <g transform="matrix(12.6992,0,0,12.6992,631.078,1615.5)">
            <path d="M0.412,-0.229C0.433,-0.212 0.451,-0.19 0.465,-0.164C0.479,-0.137 0.486,-0.104 0.486,-0.063C0.486,0.007 0.462,0.064 0.415,0.11C0.367,0.155 0.306,0.178 0.232,0.178C0.175,0.178 0.127,0.165 0.088,0.138C0.049,0.111 0.029,0.079 0.029,0.043C0.029,0.027 0.033,0.012 0.041,-0C0.049,-0.012 0.062,-0.019 0.079,-0.019C0.098,-0.019 0.113,-0.013 0.123,-0.003C0.134,0.007 0.139,0.018 0.139,0.03C0.139,0.041 0.137,0.054 0.133,0.069C0.13,0.085 0.127,0.097 0.125,0.104C0.128,0.106 0.132,0.109 0.138,0.113C0.144,0.117 0.151,0.121 0.159,0.125C0.167,0.128 0.177,0.131 0.19,0.134C0.202,0.137 0.216,0.138 0.232,0.138C0.253,0.138 0.273,0.134 0.292,0.125C0.31,0.117 0.326,0.104 0.338,0.088C0.352,0.07 0.363,0.049 0.37,0.026C0.377,0.002 0.38,-0.027 0.38,-0.063C0.38,-0.109 0.368,-0.147 0.342,-0.177C0.316,-0.207 0.283,-0.222 0.241,-0.222C0.215,-0.222 0.191,-0.217 0.168,-0.208C0.146,-0.198 0.125,-0.181 0.107,-0.159L0.075,-0.171L0.116,-0.524L0.466,-0.524L0.466,-0.437L0.156,-0.437L0.13,-0.23C0.145,-0.24 0.164,-0.251 0.188,-0.261C0.212,-0.271 0.238,-0.276 0.267,-0.276C0.291,-0.276 0.316,-0.273 0.341,-0.265C0.367,-0.258 0.39,-0.246 0.412,-0.229Z" style="fill-rule:nonzero;"/>
        </g>
    </g>
    <g transform="matrix(2,0,0,2,-455.059,-3071.25)">
        <g transform="matrix(84.448,0,0,84.448,662.45,1599)">
            <path d="M0.491,-0.009C0.476,-0.003 0.462,0.001 0.451,0.005C0.439,0.008 0.426,0.01 0.412,0.01C0.386,0.01 0.366,0.004 0.351,-0.008C0.336,-0.02 0.326,-0.037 0.322,-0.06L0.319,-0.06C0.298,-0.037 0.275,-0.019 0.251,-0.006C0.226,0.006 0.197,0.012 0.163,0.012C0.127,0.012 0.097,0.001 0.074,-0.021C0.051,-0.043 0.039,-0.072 0.039,-0.108C0.039,-0.126 0.042,-0.143 0.047,-0.158C0.052,-0.172 0.06,-0.186 0.07,-0.197C0.078,-0.207 0.089,-0.216 0.103,-0.223C0.116,-0.231 0.128,-0.237 0.14,-0.242C0.155,-0.247 0.184,-0.257 0.229,-0.272C0.274,-0.287 0.304,-0.299 0.32,-0.308L0.32,-0.356C0.32,-0.36 0.319,-0.368 0.317,-0.38C0.315,-0.392 0.312,-0.404 0.306,-0.415C0.299,-0.427 0.29,-0.437 0.278,-0.446C0.266,-0.455 0.249,-0.459 0.228,-0.459C0.213,-0.459 0.199,-0.457 0.186,-0.452C0.173,-0.447 0.164,-0.442 0.159,-0.436C0.159,-0.43 0.16,-0.42 0.163,-0.407C0.166,-0.395 0.168,-0.383 0.168,-0.372C0.168,-0.361 0.163,-0.35 0.153,-0.341C0.142,-0.331 0.128,-0.327 0.11,-0.327C0.094,-0.327 0.082,-0.332 0.074,-0.344C0.066,-0.356 0.063,-0.368 0.063,-0.383C0.063,-0.398 0.068,-0.412 0.078,-0.426C0.089,-0.439 0.103,-0.452 0.12,-0.462C0.134,-0.472 0.152,-0.479 0.173,-0.486C0.194,-0.492 0.214,-0.495 0.234,-0.495C0.261,-0.495 0.285,-0.493 0.305,-0.49C0.326,-0.486 0.344,-0.478 0.361,-0.465C0.377,-0.453 0.39,-0.437 0.399,-0.416C0.407,-0.396 0.412,-0.369 0.412,-0.336C0.412,-0.29 0.411,-0.249 0.41,-0.213C0.409,-0.177 0.409,-0.137 0.409,-0.095C0.409,-0.082 0.411,-0.072 0.415,-0.064C0.42,-0.057 0.426,-0.051 0.436,-0.045C0.44,-0.042 0.448,-0.041 0.459,-0.041C0.469,-0.04 0.48,-0.04 0.491,-0.04L0.491,-0.009ZM0.321,-0.267C0.293,-0.258 0.269,-0.25 0.248,-0.243C0.227,-0.235 0.208,-0.225 0.19,-0.213C0.174,-0.202 0.161,-0.189 0.151,-0.174C0.142,-0.159 0.137,-0.141 0.137,-0.12C0.137,-0.093 0.144,-0.073 0.158,-0.061C0.173,-0.048 0.191,-0.042 0.212,-0.042C0.236,-0.042 0.256,-0.047 0.273,-0.058C0.291,-0.07 0.306,-0.083 0.318,-0.098L0.321,-0.267Z" style="fill-rule:nonzero;"/>
        </g>
    </g>
    <g transform="matrix(2,0,0,2,-455.059,-3071.25)">
        <g transform="matrix(12.6992,0,0,12.6992,676.622,1617)">
            <path d="M0.525,-0.225C0.525,-0.191 0.519,-0.16 0.507,-0.13C0.494,-0.1 0.478,-0.075 0.458,-0.054C0.434,-0.03 0.407,-0.013 0.379,-0.001C0.35,0.01 0.32,0.016 0.289,0.016C0.252,0.016 0.22,0.009 0.19,-0.004C0.161,-0.018 0.136,-0.037 0.116,-0.061C0.095,-0.086 0.079,-0.116 0.067,-0.152C0.056,-0.188 0.05,-0.228 0.05,-0.272C0.05,-0.389 0.085,-0.487 0.154,-0.566C0.223,-0.646 0.316,-0.694 0.432,-0.71L0.441,-0.666L0.397,-0.658C0.326,-0.635 0.272,-0.6 0.233,-0.552C0.195,-0.504 0.17,-0.445 0.158,-0.376C0.186,-0.401 0.214,-0.418 0.241,-0.428C0.269,-0.438 0.297,-0.443 0.328,-0.443C0.382,-0.443 0.428,-0.423 0.467,-0.381C0.506,-0.339 0.525,-0.287 0.525,-0.225ZM0.419,-0.212C0.419,-0.265 0.407,-0.307 0.383,-0.339C0.358,-0.371 0.326,-0.387 0.285,-0.387C0.261,-0.387 0.238,-0.382 0.217,-0.373C0.196,-0.364 0.176,-0.349 0.156,-0.327C0.156,-0.323 0.155,-0.314 0.155,-0.3C0.154,-0.286 0.154,-0.275 0.154,-0.267C0.154,-0.19 0.166,-0.131 0.191,-0.088C0.216,-0.045 0.249,-0.023 0.29,-0.023C0.328,-0.023 0.36,-0.04 0.383,-0.073C0.407,-0.107 0.419,-0.153 0.419,-0.212Z" style="fill-rule:nonzero;"/>
        </g>
        <g transform="matrix(12.6992,0,0,12.6992,683.808,1617)">
            <path d="M0.238,0.178C0.207,0.178 0.179,0.174 0.154,0.167C0.128,0.159 0.107,0.149 0.088,0.136C0.07,0.123 0.056,0.108 0.046,0.091C0.036,0.074 0.031,0.056 0.031,0.039C0.031,0.023 0.035,0.008 0.043,-0.005C0.051,-0.017 0.063,-0.024 0.081,-0.024C0.1,-0.024 0.115,-0.019 0.125,-0.01C0.135,0 0.141,0.011 0.141,0.023C0.141,0.034 0.139,0.047 0.135,0.063C0.132,0.079 0.129,0.09 0.127,0.097C0.13,0.1 0.134,0.104 0.14,0.109C0.146,0.114 0.153,0.118 0.162,0.122C0.173,0.127 0.183,0.131 0.195,0.134C0.206,0.137 0.222,0.138 0.243,0.138C0.263,0.138 0.281,0.135 0.3,0.128C0.318,0.122 0.333,0.111 0.347,0.097C0.361,0.082 0.373,0.065 0.381,0.045C0.389,0.025 0.393,-0.002 0.393,-0.034C0.393,-0.052 0.391,-0.069 0.387,-0.086C0.383,-0.104 0.376,-0.119 0.366,-0.131C0.356,-0.144 0.342,-0.154 0.325,-0.161C0.308,-0.168 0.285,-0.171 0.259,-0.171L0.195,-0.171L0.195,-0.228L0.237,-0.228C0.282,-0.228 0.315,-0.24 0.334,-0.265C0.354,-0.289 0.364,-0.327 0.364,-0.376C0.364,-0.417 0.355,-0.448 0.335,-0.469C0.316,-0.489 0.289,-0.5 0.254,-0.5C0.237,-0.5 0.223,-0.497 0.212,-0.493C0.201,-0.489 0.192,-0.485 0.186,-0.481C0.177,-0.477 0.171,-0.472 0.166,-0.466C0.16,-0.461 0.156,-0.457 0.154,-0.454C0.156,-0.444 0.159,-0.431 0.162,-0.416C0.165,-0.401 0.167,-0.386 0.167,-0.373C0.167,-0.361 0.162,-0.35 0.152,-0.34C0.141,-0.33 0.126,-0.326 0.106,-0.326C0.089,-0.326 0.077,-0.332 0.069,-0.344C0.061,-0.357 0.057,-0.371 0.057,-0.387C0.057,-0.404 0.061,-0.421 0.071,-0.439C0.08,-0.457 0.094,-0.473 0.113,-0.488C0.131,-0.504 0.154,-0.516 0.181,-0.525C0.207,-0.535 0.238,-0.54 0.273,-0.54C0.313,-0.54 0.346,-0.534 0.372,-0.522C0.399,-0.51 0.419,-0.495 0.434,-0.479C0.449,-0.462 0.459,-0.444 0.464,-0.426C0.47,-0.408 0.473,-0.392 0.473,-0.379C0.473,-0.363 0.47,-0.347 0.466,-0.33C0.461,-0.314 0.454,-0.299 0.443,-0.285C0.432,-0.269 0.417,-0.255 0.398,-0.243C0.379,-0.23 0.356,-0.22 0.328,-0.212L0.328,-0.205C0.346,-0.203 0.365,-0.199 0.386,-0.192C0.407,-0.186 0.425,-0.176 0.442,-0.164C0.459,-0.15 0.473,-0.133 0.484,-0.112C0.495,-0.091 0.501,-0.064 0.501,-0.032C0.501,0.03 0.476,0.081 0.426,0.12C0.376,0.159 0.313,0.178 0.238,0.178Z" style="fill-rule:nonzero;"/>
        </g>
    </g>
    <g transform="matrix(2,0,0,2,-455.059,-3071.25)">
        <g transform="matrix(97.0064,0,0,97.0064,719.77,1599)">
            <path d="M0.491,-0.009C0.476,-0.003 0.462,0.001 0.451,0.005C0.439,0.008 0.426,0.01 0.412,0.01C0.386,0.01 0.366,0.004 0.351,-0.008C0.336,-0.02 0.326,-0.037 0.322,-0.06L0.319,-0.06C0.298,-0.037 0.275,-0.019 0.251,-0.006C0.226,0.006 0.197,0.012 0.163,0.012C0.127,0.012 0.097,0.001 0.074,-0.021C0.051,-0.043 0.039,-0.072 0.039,-0.108C0.039,-0.126 0.042,-0.143 0.047,-0.158C0.052,-0.172 0.06,-0.186 0.07,-0.197C0.078,-0.207 0.089,-0.216 0.103,-0.223C0.116,-0.231 0.128,-0.237 0.14,-0.242C0.155,-0.247 0.184,-0.257 0.229,-0.272C0.274,-0.287 0.304,-0.299 0.32,-0.308L0.32,-0.356C0.32,-0.36 0.319,-0.368 0.317,-0.38C0.315,-0.392 0.312,-0.404 0.306,-0.415C0.299,-0.427 0.29,-0.437 0.278,-0.446C0.266,-0.455 0.249,-0.459 0.228,-0.459C0.213,-0.459 0.199,-0.457 0.186,-0.452C0.173,-0.447 0.164,-0.442 0.159,-0.436C0.159,-0.43 0.16,-0.42 0.163,-0.407C0.166,-0.395 0.168,-0.383 0.168,-0.372C0.168,-0.361 0.163,-0.35 0.153,-0.341C0.142,-0.331 0.128,-0.327 0.11,-0.327C0.094,-0.327 0.082,-0.332 0.074,-0.344C0.066,-0.356 0.063,-0.368 0.063,-0.383C0.063,-0.398 0.068,-0.412 0.078,-0.426C0.089,-0.439 0.103,-0.452 0.12,-0.462C0.134,-0.472 0.152,-0.479 0.173,-0.486C0.194,-0.492 0.214,-0.495 0.234,-0.495C0.261,-0.495 0.285,-0.493 0.305,-0.49C0.326,-0.486 0.344,-0.478 0.361,-0.465C0.377,-0.453 0.39,-0.437 0.399,-0.416C0.407,-0.396 0.412,-0.369 0.412,-0.336C0.412,-0.29 0.411,-0.249 0.41,-0.213C0.409,-0.177 0.409,-0.137 0.409,-0.095C0.409,-0.082 0.411,-0.072 0.415,-0.064C0.42,-0.057 0.426,-0.051 0.436,-0.045C0.44,-0.042 0.448,-0.041 0.459,-0.041C0.469,-0.04 0.48,-0.04 0.491,-0.04L0.491,-0.009ZM0.321,-0.267C0.293,-0.258 0.269,-0.25 0.248,-0.243C0.227,-0.235 0.208,-0.225 0.19,-0.213C0.174,-0.202 0.161,-0.189 0.151,-0.174C0.142,-0.159 0.137,-0.141 0.137,-0.12C0.137,-0.093 0.144,-0.073 0.158,-0.061C0.173,-0.048 0.191,-0.042 0.212,-0.042C0.236,-0.042 0.256,-0.047 0.273,-0.058C0.291,-0.07 0.306,-0.083 0.318,-0.098L0.321,-0.267Z" style="fill-rule:nonzero;"/>
        </g>
    </g>
    <g transform="matrix(2,0,0,2,-455.059,-3071.25)">
        <g transform="matrix(12.6992,0,0,12.6992,737.509,1616.5)">
            <path d="M0.502,-0.492L0.154,0.178L0.093,0.178L0.421,-0.442L0.229,-0.442C0.201,-0.442 0.179,-0.442 0.163,-0.441C0.147,-0.44 0.132,-0.437 0.119,-0.432C0.109,-0.427 0.1,-0.417 0.092,-0.399C0.084,-0.382 0.077,-0.36 0.073,-0.333L0.043,-0.333L0.043,-0.524L0.502,-0.524L0.502,-0.492Z" style="fill-rule:nonzero;"/>
        </g>
        <g transform="matrix(12.6992,0,0,12.6992,743.889,1616.5)">
            <path d="M0.238,0.178C0.207,0.178 0.179,0.174 0.154,0.167C0.128,0.159 0.107,0.149 0.088,0.136C0.07,0.123 0.056,0.108 0.046,0.091C0.036,0.074 0.031,0.056 0.031,0.039C0.031,0.023 0.035,0.008 0.043,-0.005C0.051,-0.017 0.063,-0.024 0.081,-0.024C0.1,-0.024 0.115,-0.019 0.125,-0.01C0.135,0 0.141,0.011 0.141,0.023C0.141,0.034 0.139,0.047 0.135,0.063C0.132,0.079 0.129,0.09 0.127,0.097C0.13,0.1 0.134,0.104 0.14,0.109C0.146,0.114 0.153,0.118 0.162,0.122C0.173,0.127 0.183,0.131 0.195,0.134C0.206,0.137 0.222,0.138 0.243,0.138C0.263,0.138 0.281,0.135 0.3,0.128C0.318,0.122 0.333,0.111 0.347,0.097C0.361,0.082 0.373,0.065 0.381,0.045C0.389,0.025 0.393,-0.002 0.393,-0.034C0.393,-0.052 0.391,-0.069 0.387,-0.086C0.383,-0.104 0.376,-0.119 0.366,-0.131C0.356,-0.144 0.342,-0.154 0.325,-0.161C0.308,-0.168 0.285,-0.171 0.259,-0.171L0.195,-0.171L0.195,-0.228L0.237,-0.228C0.282,-0.228 0.315,-0.24 0.334,-0.265C0.354,-0.289 0.364,-0.327 0.364,-0.376C0.364,-0.417 0.355,-0.448 0.335,-0.469C0.316,-0.489 0.289,-0.5 0.254,-0.5C0.237,-0.5 0.223,-0.497 0.212,-0.493C0.201,-0.489 0.192,-0.485 0.186,-0.481C0.177,-0.477 0.171,-0.472 0.166,-0.466C0.16,-0.461 0.156,-0.457 0.154,-0.454C0.156,-0.444 0.159,-0.431 0.162,-0.416C0.165,-0.401 0.167,-0.386 0.167,-0.373C0.167,-0.361 0.162,-0.35 0.152,-0.34C0.141,-0.33 0.126,-0.326 0.106,-0.326C0.089,-0.326 0.077,-0.332 0.069,-0.344C0.061,-0.357 0.057,-0.371 0.057,-0.387C0.057,-0.404 0.061,-0.421 0.071,-0.439C0.08,-0.457 0.094,-0.473 0.113,-0.488C0.131,-0.504 0.154,-0.516 0.181,-0.525C0.207,-0.535 0.238,-0.54 0.273,-0.54C0.313,-0.54 0.346,-0.534 0.372,-0.522C0.399,-0.51 0.419,-0.495 0.434,-0.479C0.449,-0.462 0.459,-0.444 0.464,-0.426C0.47,-0.408 0.473,-0.392 0.473,-0.379C0.473,-0.363 0.47,-0.347 0.466,-0.33C0.461,-0.314 0.454,-0.299 0.443,-0.285C0.432,-0.269 0.417,-0.255 0.398,-0.243C0.379,-0.23 0.356,-0.22 0.328,-0.212L0.328,-0.205C0.346,-0.203 0.365,-0.199 0.386,-0.192C0.407,-0.186 0.425,-0.176 0.442,-0.164C0.459,-0.15 0.473,-0.133 0.484,-0.112C0.495,-0.091 0.501,-0.064 0.501,-0.032C0.501,0.03 0.476,0.081 0.426,0.12C0.376,0.159 0.313,0.178 0.238,0.178Z" style="fill-rule:nonzero;"/>
        </g>
    </g>
    <g transform="matrix(2,0,0,2,-455.059,-3071.25)">
        <g transform="matrix(111.43,0,0,111.43,785.612,1599)">
            <path d="M0.491,-0.009C0.476,-0.003 0.462,0.001 0.451,0.005C0.439,0.008 0.426,0.01 0.412,0.01C0.386,0.01 0.366,0.004 0.351,-0.008C0.336,-0.02 0.326,-0.037 0.322,-0.06L0.319,-0.06C0.298,-0.037 0.275,-0.019 0.251,-0.006C0.226,0.006 0.197,0.012 0.163,0.012C0.127,0.012 0.097,0.001 0.074,-0.021C0.051,-0.043 0.039,-0.072 0.039,-0.108C0.039,-0.126 0.042,-0.143 0.047,-0.158C0.052,-0.172 0.06,-0.186 0.07,-0.197C0.078,-0.207 0.089,-0.216 0.103,-0.223C0.116,-0.231 0.128,-0.237 0.14,-0.242C0.155,-0.247 0.184,-0.257 0.229,-0.272C0.274,-0.287 0.304,-0.299 0.32,-0.308L0.32,-0.356C0.32,-0.36 0.319,-0.368 0.317,-0.38C0.315,-0.392 0.312,-0.404 0.306,-0.415C0.299,-0.427 0.29,-0.437 0.278,-0.446C0.266,-0.455 0.249,-0.459 0.228,-0.459C0.213,-0.459 0.199,-0.457 0.186,-0.452C0.173,-0.447 0.164,-0.442 0.159,-0.436C0.159,-0.43 0.16,-0.42 0.163,-0.407C0.166,-0.395 0.168,-0.383 0.168,-0.372C0.168,-0.361 0.163,-0.35 0.153,-0.341C0.142,-0.331 0.128,-0.327 0.11,-0.327C0.094,-0.327 0.082,-0.332 0.074,-0.344C0.066,-0.356 0.063,-0.368 0.063,-0.383C0.063,-0.398 0.068,-0.412 0.078,-0.426C0.089,-0.439 0.103,-0.452 0.12,-0.462C0.134,-0.472 0.152,-0.479 0.173,-0.486C0.194,-0.492 0.214,-0.495 0.234,-0.495C0.261,-0.495 0.285,-0.493 0.305,-0.49C0.326,-0.486 0.344,-0.478 0.361,-0.465C0.377,-0.453 0.39,-0.437 0.399,-0.416C0.407,-0.396 0.412,-0.369 0.412,-0.336C0.412,-0.29 0.411,-0.249 0.41,-0.213C0.409,-0.177 0.409,-0.137 0.409,-0.095C0.409,-0.082 0.411,-0.072 0.415,-0.064C0.42,-0.057 0.426,-0.051 0.436,-0.045C0.44,-0.042 0.448,-0.041 0.459,-0.041C0.469,-0.04 0.48,-0.04 0.491,-0.04L0.491,-0.009ZM0.321,-0.267C0.293,-0.258 0.269,-0.25 0.248,-0.243C0.227,-0.235 0.208,-0.225 0.19,-0.213C0.174,-0.202 0.161,-0.189 0.151,-0.174C0.142,-0.159 0.137,-0.141 0.137,-0.12C0.137,-0.093 0.144,-0.073 0.158,-0.061C0.173,-0.048 0.191,-0.042 0.212,-0.042C0.236,-0.042 0.256,-0.047 0.273,-0.058C0.291,-0.07 0.306,-0.083 0.318,-0.098L0.321,-0.267Z" style="fill-rule:nonzero;"/>
        </g>
    </g>
    <g transform="matrix(2,0,0,2,-455.059,-3071.25)">
        <g transform="matrix(12.6992,0,0,12.6992,806.315,1617)">
            <path d="M0.545,-0.184C0.545,-0.129 0.522,-0.082 0.475,-0.042C0.427,-0.003 0.365,0.017 0.289,0.017C0.217,0.017 0.159,-0.001 0.116,-0.038C0.072,-0.074 0.051,-0.12 0.051,-0.177C0.051,-0.219 0.064,-0.254 0.089,-0.282C0.115,-0.311 0.153,-0.334 0.203,-0.354C0.161,-0.377 0.13,-0.403 0.11,-0.43C0.089,-0.458 0.079,-0.489 0.079,-0.524C0.079,-0.577 0.102,-0.621 0.147,-0.657C0.192,-0.693 0.246,-0.711 0.309,-0.711C0.371,-0.711 0.422,-0.694 0.461,-0.66C0.5,-0.626 0.52,-0.584 0.52,-0.533C0.52,-0.5 0.509,-0.469 0.487,-0.439C0.466,-0.41 0.434,-0.386 0.393,-0.367C0.447,-0.344 0.486,-0.318 0.51,-0.29C0.533,-0.262 0.545,-0.227 0.545,-0.184ZM0.427,-0.538C0.427,-0.578 0.415,-0.61 0.392,-0.635C0.368,-0.66 0.338,-0.672 0.301,-0.672C0.264,-0.672 0.234,-0.66 0.211,-0.636C0.188,-0.613 0.176,-0.583 0.176,-0.547C0.176,-0.513 0.189,-0.484 0.216,-0.46C0.243,-0.437 0.29,-0.411 0.358,-0.384C0.383,-0.4 0.4,-0.421 0.411,-0.446C0.422,-0.472 0.427,-0.503 0.427,-0.538ZM0.448,-0.161C0.448,-0.181 0.443,-0.199 0.435,-0.215C0.426,-0.23 0.413,-0.244 0.396,-0.257C0.381,-0.269 0.358,-0.282 0.33,-0.296C0.301,-0.309 0.271,-0.323 0.237,-0.337C0.206,-0.32 0.183,-0.298 0.168,-0.272C0.154,-0.246 0.146,-0.216 0.146,-0.183C0.146,-0.135 0.161,-0.096 0.189,-0.067C0.217,-0.037 0.254,-0.022 0.301,-0.022C0.346,-0.022 0.382,-0.035 0.408,-0.062C0.435,-0.088 0.448,-0.121 0.448,-0.161Z" style="fill-rule:nonzero;"/>
        </g>
        <g transform="matrix(12.6992,0,0,12.6992,813.886,1617)">
            <path d="M0.529,-0.044L0.43,-0.044L0.43,0.178L0.336,0.178L0.336,-0.044L0.024,-0.044L0.024,-0.119L0.366,-0.537L0.43,-0.537L0.43,-0.108L0.529,-0.108L0.529,-0.044ZM0.336,-0.108L0.336,-0.428L0.073,-0.108L0.336,-0.108Z" style="fill-rule:nonzero;"/>
        </g>
    </g>
    <g transform="matrix(2,0,0,2,-455.059,-3071.25)">
        <g transform="matrix(128,0,0,128,861.242,1599)">
            <path d="M0.491,-0.009C0.476,-0.003 0.462,0.001 0.451,0.005C0.439,0.008 0.426,0.01 0.412,0.01C0.386,0.01 0.366,0.004 0.351,-0.008C0.336,-0.02 0.326,-0.037 0.322,-0.06L0.319,-0.06C0.298,-0.037 0.275,-0.019 0.251,-0.006C0.226,0.006 0.197,0.012 0.163,0.012C0.127,0.012 0.097,0.001 0.074,-0.021C0.051,-0.043 0.039,-0.072 0.039,-0.108C0.039,-0.126 0.042,-0.143 0.047,-0.158C0.052,-0.172 0.06,-0.186 0.07,-0.197C0.078,-0.207 0.089,-0.216 0.103,-0.223C0.116,-0.231 0.128,-0.237 0.14,-0.242C0.155,-0.247 0.184,-0.257 0.229,-0.272C0.274,-0.287 0.304,-0.299 0.32,-0.308L0.32,-0.356C0.32,-0.36 0.319,-0.368 0.317,-0.38C0.315,-0.392 0.312,-0.404 0.306,-0.415C0.299,-0.427 0.29,-0.437 0.278,-0.446C0.266,-0.455 0.249,-0.459 0.228,-0.459C0.213,-0.459 0.199,-0.457 0.186,-0.452C0.173,-0.447 0.164,-0.442 0.159,-0.436C0.159,-0.43 0.16,-0.42 0.163,-0.407C0.166,-0.395 0.168,-0.383 0.168,-0.372C0.168,-0.361 0.163,-0.35 0.153,-0.341C0.142,-0.331 0.128,-0.327 0.11,-0.327C0.094,-0.327 0.082,-0.332 0.074,-0.344C0.066,-0.356 0.063,-0.368 0.063,-0.383C0.063,-0.398 0.068,-0.412 0.078,-0.426C0.089,-0.439 0.103,-0.452 0.12,-0.462C0.134,-0.472 0.152,-0.479 0.173,-0.486C0.194,-0.492 0.214,-0.495 0.234,-0.495C0.261,-0.495 0.285,-0.493 0.305,-0.49C0.326,-0.486 0.344,-0.478 0.361,-0.465C0.377,-0.453 0.39,-0.437 0.399,-0.416C0.407,-0.396 0.412,-0.369 0.412,-0.336C0.412,-0.29 0.411,-0.249 0.41,-0.213C0.409,-0.177 0.409,-0.137 0.409,-0.095C0.409,-0.082 0.411,-0.072 0.415,-0.064C0.42,-0.057 0.426,-0.051 0.436,-0.045C0.44,-0.042 0.448,-0.041 0.459,-0.041C0.469,-0.04 0.48,-0.04 0.491,-0.04L0.491,-0.009ZM0.321,-0.267C0.293,-0.258 0.269,-0.25 0.248,-0.243C0.227,-0.235 0.208,-0.225 0.19,-0.213C0.174,-0.202 0.161,-0.189 0.151,-0.174C0.142,-0.159 0.137,-0.141 0.137,-0.12C0.137,-0.093 0.144,-0.073 0.158,-0.061C0.173,-0.048 0.191,-0.042 0.212,-0.042C0.236,-0.042 0.256,-0.047 0.273,-0.058C0.291,-0.07 0.306,-0.083 0.318,-0.098L0.321,-0.267Z" style="fill-rule:nonzero;"/>
        </g>
    </g>
    <g transform="matrix(2,0,0,2,-455.059,-3071.25)">
        <g transform="matrix(12.6992,0,0,12.6992,886.298,1618)">
            <path d="M0.516,-0.252C0.516,-0.195 0.507,-0.142 0.489,-0.092C0.471,-0.042 0.445,0.002 0.412,0.04C0.379,0.077 0.339,0.108 0.291,0.132C0.244,0.157 0.191,0.173 0.132,0.181L0.124,0.137L0.167,0.129C0.237,0.107 0.292,0.073 0.332,0.027C0.371,-0.019 0.396,-0.077 0.408,-0.148C0.381,-0.125 0.354,-0.108 0.328,-0.098C0.301,-0.087 0.271,-0.082 0.238,-0.082C0.185,-0.082 0.139,-0.103 0.1,-0.144C0.061,-0.185 0.041,-0.237 0.041,-0.3C0.041,-0.368 0.064,-0.424 0.109,-0.471C0.155,-0.517 0.211,-0.54 0.277,-0.54C0.35,-0.54 0.408,-0.514 0.451,-0.462C0.494,-0.411 0.516,-0.34 0.516,-0.252ZM0.412,-0.258C0.412,-0.334 0.4,-0.394 0.375,-0.437C0.35,-0.48 0.317,-0.501 0.276,-0.501C0.238,-0.501 0.206,-0.485 0.183,-0.451C0.159,-0.418 0.147,-0.372 0.147,-0.313C0.147,-0.261 0.159,-0.218 0.183,-0.187C0.208,-0.155 0.24,-0.139 0.281,-0.139C0.306,-0.139 0.329,-0.143 0.351,-0.153C0.372,-0.162 0.391,-0.177 0.41,-0.197C0.41,-0.199 0.41,-0.201 0.41,-0.205C0.411,-0.209 0.411,-0.215 0.411,-0.222C0.411,-0.226 0.412,-0.251 0.412,-0.258Z" style="fill-rule:nonzero;"/>
        </g>
        <g transform="matrix(12.6992,0,0,12.6992,893.484,1618)">
            <path d="M0.525,-0.225C0.525,-0.191 0.519,-0.16 0.507,-0.13C0.494,-0.1 0.478,-0.075 0.458,-0.054C0.434,-0.03 0.407,-0.013 0.379,-0.001C0.35,0.01 0.32,0.016 0.289,0.016C0.252,0.016 0.22,0.009 0.19,-0.004C0.161,-0.018 0.136,-0.037 0.116,-0.061C0.095,-0.086 0.079,-0.116 0.067,-0.152C0.056,-0.188 0.05,-0.228 0.05,-0.272C0.05,-0.389 0.085,-0.487 0.154,-0.566C0.223,-0.646 0.316,-0.694 0.432,-0.71L0.441,-0.666L0.397,-0.658C0.326,-0.635 0.272,-0.6 0.233,-0.552C0.195,-0.504 0.17,-0.445 0.158,-0.376C0.186,-0.401 0.214,-0.418 0.241,-0.428C0.269,-0.438 0.297,-0.443 0.328,-0.443C0.382,-0.443 0.428,-0.423 0.467,-0.381C0.506,-0.339 0.525,-0.287 0.525,-0.225ZM0.419,-0.212C0.419,-0.265 0.407,-0.307 0.383,-0.339C0.358,-0.371 0.326,-0.387 0.285,-0.387C0.261,-0.387 0.238,-0.382 0.217,-0.373C0.196,-0.364 0.176,-0.349 0.156,-0.327C0.156,-0.323 0.155,-0.314 0.155,-0.3C0.154,-0.286 0.154,-0.275 0.154,-0.267C0.154,-0.19 0.166,-0.131 0.191,-0.088C0.216,-0.045 0.249,-0.023 0.29,-0.023C0.328,-0.023 0.36,-0.04 0.383,-0.073C0.407,-0.107 0.419,-0.153 0.419,-0.212Z" style="fill-rule:nonzero;"/>
        </g>
    </g>
</svg>
